<svg width="24" height="24" viewBox="0 0 24 24" fill="none" xmlns="http://www.w3.org/2000/svg">
<path fill-rule="evenodd" clip-rule="evenodd" d="M12.0216 0.0899658C5.40733 0.0899658 0.0438232 5.54392 0.0438232 12.2722C0.0438232 17.6548 3.47582 22.2213 8.23496 23.8322C8.83358 23.9449 9.05334 23.5679 9.05334 23.2461C9.05334 22.9556 9.04224 21.996 9.03708 20.978C5.70485 21.7149 5.00171 19.5406 5.00171 19.5406C4.45685 18.1325 3.67179 17.7581 3.67179 17.7581C2.58505 17.002 3.75371 17.0175 3.75371 17.0175C4.95648 17.1032 5.58981 18.2729 5.58981 18.2729C6.6581 20.1353 8.39186 19.5969 9.07536 19.2856C9.18286 18.4984 9.49328 17.9606 9.83582 17.6566C7.17539 17.3485 4.3787 16.3039 4.3787 11.636C4.3787 10.3059 4.8466 9.21916 5.61281 8.36601C5.48845 8.05897 5.07847 6.8201 5.72885 5.14206C5.72885 5.14206 6.73467 4.81464 9.02359 6.39081C9.97903 6.12088 11.0037 5.98552 12.0216 5.98088C13.0395 5.98552 14.065 6.12088 15.0222 6.39081C17.3084 4.81464 18.3128 5.14206 18.3128 5.14206C18.9647 6.8201 18.5546 8.05897 18.4302 8.36601C19.1982 9.21916 19.6629 10.3059 19.6629 11.636C19.6629 16.315 16.8609 17.3453 14.1937 17.6469C14.6233 18.025 15.0061 18.7663 15.0061 19.9029C15.0061 21.5328 14.9923 22.8447 14.9923 23.2461C14.9923 23.5703 15.2079 23.9502 15.815 23.8305C20.5716 22.2179 23.9992 17.653 23.9992 12.2722C23.9992 5.54392 18.6365 0.0899658 12.0216 0.0899658Z" fill="#FBFBFF"/>
<path fill-rule="evenodd" clip-rule="evenodd" d="M4.58042 17.5811C4.55404 17.6419 4.46042 17.6598 4.37513 17.6183C4.28825 17.5785 4.23946 17.496 4.26762 17.4353C4.29341 17.373 4.38723 17.3558 4.47391 17.3972C4.56098 17.4371 4.61057 17.5204 4.58042 17.5811Z" fill="#FBFBFF"/>
<path fill-rule="evenodd" clip-rule="evenodd" d="M5.06558 18.1315C5.00845 18.1853 4.89678 18.1603 4.82101 18.0752C4.74267 17.9903 4.72799 17.8767 4.78591 17.822C4.84481 17.7682 4.95311 17.7934 5.03166 17.8783C5.11 17.9642 5.12528 18.077 5.06558 18.1315Z" fill="#FBFBFF"/>
<path fill-rule="evenodd" clip-rule="evenodd" d="M5.53784 18.8331C5.46445 18.885 5.34445 18.8363 5.27027 18.728C5.19688 18.6197 5.19688 18.4898 5.27186 18.4377C5.34624 18.3857 5.46445 18.4325 5.53963 18.54C5.61282 18.6499 5.61281 18.7801 5.53784 18.8331Z" fill="#FBFBFF"/>
<path fill-rule="evenodd" clip-rule="evenodd" d="M6.18485 19.511C6.1192 19.5846 5.97936 19.5648 5.87701 19.4644C5.77229 19.3661 5.74313 19.2267 5.80898 19.1531C5.87543 19.0792 6.01606 19.1 6.1192 19.1997C6.22313 19.2977 6.25486 19.4381 6.18485 19.511Z" fill="#FBFBFF"/>
<path fill-rule="evenodd" clip-rule="evenodd" d="M7.07741 19.9045C7.04845 20 6.91377 20.0433 6.7781 20.0028C6.64263 19.961 6.55397 19.8493 6.58134 19.7528C6.60951 19.6568 6.74478 19.6116 6.88144 19.655C7.01672 19.6966 7.10558 19.8075 7.07741 19.9045Z" fill="#FBFBFF"/>
<path fill-rule="evenodd" clip-rule="evenodd" d="M8.05764 19.9776C8.06101 20.078 7.94597 20.1614 7.80356 20.163C7.66035 20.1664 7.54452 20.0851 7.54293 19.9862C7.54293 19.8848 7.65539 19.8023 7.7986 19.7998C7.94101 19.797 8.05764 19.8777 8.05764 19.9776Z" fill="#FBFBFF"/>
<path fill-rule="evenodd" clip-rule="evenodd" d="M8.96984 19.8196C8.9869 19.9177 8.88792 20.0183 8.7465 20.045C8.60746 20.071 8.47873 20.0105 8.46108 19.9132C8.44382 19.8128 8.54458 19.7121 8.68343 19.6861C8.82505 19.661 8.95179 19.72 8.96984 19.8196Z" fill="#FBFBFF"/>
</svg>
