<svg width="24" height="24" viewBox="0 0 24 24" fill="none" xmlns="http://www.w3.org/2000/svg">
<path fill-rule="evenodd" clip-rule="evenodd" d="M4.07843 0C1.82598 0 0 1.79086 0 4V20C0 22.2091 1.82598 24 4.07843 24H19.9216C22.174 24 24 22.2091 24 20V4C24 1.79086 22.174 0 19.9216 0H4.07843ZM3.29384 5.3688C3.29384 6.57551 4.22667 7.45735 5.37735 7.45735C6.5282 7.45735 7.46103 6.57551 7.46103 5.3688C7.46103 4.16226 6.5282 3.27942 5.37735 3.27942C4.22667 3.27942 3.29384 4.16226 3.29384 5.3688ZM16.8938 20.6262H20.5078V13.4776C20.5078 9.94706 18.3287 8.74288 16.3121 8.74288C14.4474 8.74288 13.1807 9.95765 12.831 10.6692V9.06775H9.35541V20.6262H12.9694V14.3596C12.9694 12.6887 14.0206 11.8761 15.093 11.8761C16.1073 11.8761 16.8938 12.4506 16.8938 14.3132V20.6262ZM7.18425 9.05884V20.6173H3.57045V9.05884H7.18425Z" fill="#4C5FF7"/>
</svg>
