<svg width="624" height="640" viewBox="0 0 624 640" fill="none" xmlns="http://www.w3.org/2000/svg">
<path d="M311.35 529.01C435.693 529.01 536.492 428.326 536.492 304.125C536.492 179.925 435.693 79.2408 311.35 79.2408C187.008 79.2408 86.209 179.925 86.209 304.125C86.209 428.326 187.008 529.01 311.35 529.01Z" fill="#EC8C92"/>
<path d="M115.516 256.301L114.341 256.098C114.401 255.753 120.592 221.279 144.525 194.84L145.408 195.639C121.707 221.821 115.576 255.961 115.516 256.301Z" fill="white"/>
<path d="M148.139 172.989L147.155 172.322C147.346 172.042 166.503 144.288 197.235 130.747L197.718 131.837C167.308 145.235 148.33 172.715 148.139 172.989Z" fill="white"/>
<path d="M523.348 300.045H522.155C522.155 257.29 502.73 218.538 502.533 218.151L503.595 217.615C503.792 218.002 523.348 256.998 523.348 300.045Z" fill="white"/>
<path d="M500.124 277.753C499.205 260.721 493.653 246.388 493.599 246.245L494.708 245.81C494.762 245.953 500.38 260.459 501.317 277.687L500.124 277.753Z" fill="white"/>
<path d="M78.0982 248.199L76.9292 247.949C77.0008 247.603 84.5333 213.308 110.93 178.649L111.878 179.37C85.6426 213.82 78.1697 247.86 78.0982 248.199Z" fill="black"/>
<path d="M115.385 152.354L114.473 151.591C114.544 151.508 121.54 143.18 130.462 134.768L131.279 135.632C122.405 143.996 115.451 152.27 115.385 152.354Z" fill="black"/>
<path d="M144.883 135.59L143.977 134.816C144.078 134.696 154.3 122.901 173.809 109.605C191.802 97.3388 221.61 81.2425 261.456 74.1832L261.664 75.3567C222.028 82.3803 192.375 98.3932 174.482 110.588C155.099 123.795 144.978 135.471 144.883 135.59Z" fill="black"/>
<path d="M535.92 227.48C525.882 186.614 494.034 151.335 493.712 150.983L494.595 150.179C494.917 150.531 526.968 186.042 537.077 227.194L535.92 227.48Z" fill="black"/>
<path d="M544.764 286.975C543.578 272.111 540.739 259.101 538.568 250.802L539.725 250.499C541.908 258.845 544.764 271.927 545.957 286.879L544.764 286.975Z" fill="black"/>
<path d="M551.235 343.151L550.072 342.883C551.098 338.451 551.993 333.643 552.732 328.598L553.913 328.77C553.168 333.846 552.261 338.683 551.235 343.151Z" fill="black"/>
<path d="M556.12 306.473L554.927 306.407C555.863 289.25 555.034 272.707 552.857 265.243L554.003 264.909C556.215 272.493 557.062 289.197 556.12 306.473Z" fill="black"/>
<path d="M537.351 360.749L536.218 360.385C538.311 353.88 540.088 344.825 541.502 333.488L542.683 333.637C541.263 345.045 539.468 354.166 537.351 360.749Z" fill="black"/>
<path d="M543.756 323.683L542.569 323.576C543.005 318.858 543.196 315.724 543.196 315.688L544.388 315.76C544.382 315.79 544.192 318.953 543.756 323.683Z" fill="black"/>
<path d="M422.985 99.1796C391.727 79.3064 339.375 72.4794 338.851 72.4139L339 71.2344C339.131 71.2522 352.389 72.956 369.357 77.1082C385.03 80.9446 407.162 87.712 423.629 98.1788L422.985 99.1796Z" fill="black"/>
<path d="M396.91 77.7873C388.525 74.0938 369.041 69.7034 368.844 69.6617L369.106 68.5C369.303 68.5417 388.901 72.956 397.393 76.7031L396.91 77.7873Z" fill="black"/>
<path d="M143.165 476.038C140.637 474.043 138.138 471.952 135.74 469.831L136.533 468.937C138.919 471.046 141.4 473.125 143.911 475.103L143.165 476.038Z" fill="black"/>
<path d="M123.013 457.333C88.8333 420.1 82.2848 379.472 82.2192 379.067L83.4001 378.888C83.4598 379.293 89.9665 419.576 123.89 456.529L123.013 457.333Z" fill="black"/>
<path d="M132.383 454.253C120.145 444.173 108.706 421.173 108.592 420.94L109.66 420.416C109.773 420.642 121.105 443.417 133.14 453.336L132.383 454.253Z" fill="black"/>
<path d="M250.923 530.743C233.526 527.419 216.338 521.51 199.835 513.176L200.372 512.109C216.779 520.39 233.86 526.264 251.15 529.57L250.923 530.743Z" fill="black"/>
<path d="M178.759 500.898C170.206 495.179 165.417 490.937 165.37 490.896L166.163 490.008C166.211 490.05 170.946 494.244 179.421 499.909L178.759 500.898Z" fill="black"/>
<path d="M322.151 543.26L322.092 542.068C326.505 541.854 330.823 541.52 334.92 541.079L335.052 542.265C330.93 542.711 326.589 543.045 322.151 543.26Z" fill="black"/>
<path d="M306.472 543.534C279.169 543.236 256.291 539.149 256.059 539.107L256.273 537.934C256.5 537.976 279.288 542.05 306.484 542.342L306.472 543.534Z" fill="black"/>
<path d="M175.979 465.375C138.358 439.026 124.498 397.231 124.361 396.814L125.494 396.444C125.631 396.861 139.378 438.288 176.665 464.398L175.979 465.375Z" fill="white"/>
<path d="M258.235 510.966C228.707 505.783 199.144 486.041 198.852 485.838L199.52 484.849C199.812 485.046 229.173 504.651 258.444 509.786L258.235 510.966Z" fill="white"/>
<path d="M209.659 475.157C201.798 472.696 192.309 463.91 191.91 463.54L192.721 462.67C192.816 462.76 202.412 471.642 210.01 474.025L209.659 475.157Z" fill="white"/>
<path d="M350.934 111.481C344.94 115.127 318.871 130.366 300.055 144.699C297.061 146.98 294.83 150.108 293.655 153.682C291.216 161.123 289.027 169.385 288.407 171.78C288.264 172.334 288.335 172.924 288.622 173.418C290.381 176.516 300.025 187.179 352.568 205.742L364.901 179.096C364.901 179.096 357.112 129.514 354.721 112.953C354.476 111.291 352.562 110.492 350.934 111.481Z" fill="white"/>
<path d="M469.606 409.484L404.926 417.074C394.436 418.307 385.263 424.723 380.522 434.153L351.572 492.254C350.338 494.708 347.594 496.013 344.91 495.423L334.622 493.159C327.406 491.569 320.195 495.846 318.138 502.935L316.528 508.493C315.633 511.573 317.041 514.85 319.891 516.327L367.383 540.912C370.532 542.539 374.402 541.449 376.233 538.416L423.963 460.776L489.931 456.624L469.606 409.484Z" fill="#274D76"/>
<path d="M432.999 359.873L437.716 348.054L476.739 350.145L462.562 403.658L432.999 359.873Z" fill="#274D76"/>
<path d="M428.072 331.308C428.072 331.308 432.36 320.222 432.295 314.199C432.211 306.187 433.082 289.882 427.971 290.65C424.858 291.115 423.927 298.657 423.546 301.897C423.397 303.178 422.902 304.405 422.043 305.37C420.82 306.747 419.085 307.277 418.172 301.04C416.687 290.877 417.009 271.319 411.099 274.899C408.105 276.716 409.709 294.475 408.015 293.688C406.322 292.902 406.53 266.083 399.326 269.008C396.946 269.973 397.483 282.787 397.972 289.953C398.002 290.352 397.417 290.436 397.328 290.043C396.356 285.712 394.865 279.403 393.672 275.704C392.39 271.718 389.408 273.803 389.408 276.71C389.408 282.965 390.469 296.137 390.469 296.137L428.072 331.308Z" fill="#274D76"/>
<path d="M528.238 366.89L538.973 385.358L513.925 465.78C511.575 473.936 502.235 479.023 493.85 477.629L461.608 474.055C457.469 473.364 455.984 475.484 457.433 479.416L471.348 543.188C473.709 549.604 470.047 556.657 463.433 558.427L415.459 571.235C410.813 572.474 406.173 569.233 405.749 564.449L402.988 547.99C402.875 546.733 402.517 541.687 405.374 539.649C409.548 536.671 416.109 532.501 416.109 532.501C418.321 531.315 418.548 527.771 417.898 525.352L399.672 454.557C396.696 443.482 403.596 434.898 414.922 433.015C429.236 430.633 453.092 425.271 453.092 425.271L463.308 358.699C464.65 353.415 469.534 349.799 474.992 350.061L490.665 350.806L528.238 366.89Z" fill="#FFF3A1"/>
<path d="M522.08 349.389C525.338 335.605 516.793 321.792 502.993 318.537C489.193 315.282 475.364 323.818 472.106 337.602C468.847 351.386 477.393 365.199 491.193 368.454C504.992 371.709 518.821 363.173 522.08 349.389Z" fill="#FFF3A1"/>
<path d="M263.931 343.145L349.252 266.047C353.659 262.062 360.106 262.377 365.325 265.219C375.875 270.968 393.97 281.244 410.109 298.71C423.659 313.377 446.173 336.664 448.833 356.376C449.137 358.634 448.35 360.898 446.769 362.536C420.754 389.456 367.836 439.038 361.919 444.078C347.916 456.01 311.601 429.072 290.912 405.052C282.27 395.026 253.118 353.332 263.931 343.145Z" fill="white"/>
<path d="M541.896 371.609C533.976 363.823 520.437 364.287 512.088 371.436L482.488 398.362C480.866 399.709 478.463 399.5 477.097 397.898L456.127 373.414C452.752 369.464 450.712 364.555 450.295 359.384L449.537 350.049C449.483 349.418 449.334 348.798 449.084 348.215L445.261 338.385C444.736 337.033 442.911 336.866 442.118 338.081C441.044 339.732 440.46 342.216 440.46 344.682C440.46 349.448 441.581 354.595 439.792 354.595C437.406 354.595 434.573 349.912 433.363 345.516C431.973 340.458 431.281 336.425 428.83 334.185C427.721 333.173 425.747 333.84 425.442 335.526C424.733 339.41 425.55 346.725 425.615 350.878C425.633 352.069 424.566 352.045 424.238 350.598C423.23 346.112 420.48 332.404 420.48 332.404C420.045 330.599 417.552 330.391 416.83 332.106C414.767 337.033 415.536 347.75 415.912 351.735C415.948 352.087 415.471 352.23 415.31 351.92C414.314 350.061 412.554 346.404 411.296 341.745C411.016 340.709 409.596 340.482 409.071 341.417C407.491 344.259 408.296 351.044 408.719 353.832C408.761 354.094 408.403 354.214 408.272 353.987C407.586 352.784 407.061 351.646 406.531 350.288C405.845 348.53 404.372 349.537 404.246 350.651C403.829 354.41 403.614 359.784 405.213 366.67C405.791 369.154 407.884 376.607 417.266 387.812L467.364 443.214C476.31 454.533 487.772 451.548 494.202 446.789C510.304 434.874 540.029 405.523 540.029 405.523C551.337 395.991 548.969 378.561 541.896 371.609Z" fill="#FFF3A1"/>
<path d="M317.863 389.117C287.924 357.15 272.316 347.935 264.694 347.083C263.006 346.892 261.545 348.209 261.557 349.907C261.647 365.479 283.606 396.581 290.906 405.064C307.57 424.419 334.39 445.669 351.506 446.949C352.819 447.045 353.88 445.907 353.731 444.608C352.693 435.47 345.465 418.587 317.863 389.117Z" fill="#F2BDBA"/>
<path d="M288.878 173.853C291.246 179.548 318.454 197.068 352.556 205.748L353.57 203.562C340.336 191.975 317.458 180.347 300.472 175.968C294.246 174.365 290.853 173.621 288.878 173.853Z" fill="#F2BDBA"/>
<path d="M354.184 122.961C351.059 120.357 347.344 118.63 343.151 117.826L343.378 116.658C347.773 117.504 351.662 119.315 354.948 122.043L354.184 122.961Z" fill="black"/>
<path d="M399.785 320.561L387.159 309.999C385.179 308.343 382.609 307.575 380.044 307.884C369.816 309.112 343.073 312.704 334.11 317.624C330.788 319.447 323.595 327.406 323.595 327.406C320.989 330.105 320.977 334.376 323.571 337.093L339.984 355.208C341.123 356.465 343.044 356.608 344.356 355.536L357.477 344.801C358.896 343.64 359.039 341.519 357.787 340.172L355.145 337.349C354.089 336.36 354.578 334.59 355.997 334.287L398.664 325.136C400.787 324.666 401.461 321.961 399.785 320.561ZM380.122 339.035C378.07 337.581 375.518 337.456 373.585 339.052L333.949 371.752C331.563 373.717 331.414 378.501 333.436 380.842C335.004 382.659 338.165 386.281 339.698 388.14C342.531 391.577 347.183 391.684 349.467 389.605L360.166 379.865C361.138 378.984 362.641 379.043 363.536 380.002L365.802 382.433C367.407 384.113 370.055 384.196 371.76 382.623L383.575 371.722C385.812 369.655 385.829 366.128 383.605 364.043L382.513 363.018C381.494 362.065 381.506 360.439 382.537 359.504L387.977 354.553C390.004 352.706 390.726 348.566 388.167 346.153C388.173 346.153 382.776 340.923 380.122 339.035Z" fill="#808DFA"/>
<path d="M293.715 177.04C301.236 182.956 320.893 193.714 345.173 201.584L345.972 199.91C335.94 191.397 313.092 180.823 294.204 176.045C293.614 175.896 293.232 176.665 293.715 177.04Z" fill="black"/>
<path d="M266.663 353.272C270.074 348.959 300.216 377.048 310.433 387.455C327.919 405.261 353.314 439.723 347.195 441.332C343.384 442.333 319.808 429.143 294.92 401.043C275.984 379.657 264.557 355.935 266.663 353.272Z" fill="black"/>
<path d="M468.049 104.738L467.167 99.3881C466.433 94.9381 462.026 92.7577 457.767 94.2709C452.185 96.2486 444.945 98.5958 441.02 101.646C439.464 102.855 438.617 104.761 438.778 106.721C440.215 124.134 441.861 137.705 442.642 143.698C442.917 145.825 442.213 147.963 440.722 149.506L423.307 167.598L440.967 176.617L474.025 145.848L468.049 104.738Z" fill="#274D76"/>
<path d="M352.562 205.748L365.194 178.458C367.383 173.734 371.999 170.606 377.199 170.315L403.375 168.867C409.817 168.51 416.085 166.651 421.679 163.44C426.259 160.813 431.895 160.837 436.452 163.511C439.446 165.269 443.227 164.941 445.875 162.695L455.328 154.677C456.413 153.754 456.998 152.377 456.908 150.96C456.407 143.37 454.815 118.517 454.612 106.4C454.582 104.714 455.531 103.159 457.046 102.42C463.338 99.3524 473.19 97.8571 480.741 99.1439C482.607 99.4596 484.068 100.991 484.188 102.879C484.695 111.148 479.041 120.006 479.041 120.006L484.021 157.399C485.118 165.644 481.593 173.823 474.848 178.696L443.4 201.405C441.014 203.127 438.533 204.723 435.969 206.171C429.879 209.62 423.367 212.265 416.598 214.035L392.497 220.331L352.562 205.748Z" fill="#FFF3A1"/>
<path d="M363.399 181.228L378.04 179.012L389.42 191.087L367.365 212.051L355.699 198.885L363.399 181.228Z" fill="#274D76"/>
<path d="M399.217 174.393C402.083 163.443 395.519 152.246 384.557 149.383C373.594 146.521 362.384 153.077 359.519 164.027C356.653 174.977 363.217 186.175 374.18 189.037C385.142 191.899 396.352 185.343 399.217 174.393Z" fill="#FFF3A1"/>
<path d="M326.839 161.695L330.722 155.708C331.378 154.695 330.978 153.337 329.875 152.842L328.253 152.115C327.274 151.674 327.149 150.34 328.032 149.726L345.369 137.723C346.246 137.115 346.049 135.769 345.035 135.429L337.097 132.814C336.155 132.504 335.129 132.641 334.3 133.189L317.231 144.478C316.181 145.169 315.335 146.122 314.762 147.236L312.364 151.907C311.154 154.266 312.191 157.155 314.625 158.204L324.4 162.427C325.288 162.814 326.32 162.499 326.839 161.695ZM347.337 159.05L346.455 158.501C345.667 158.013 345.369 157.018 345.751 156.178L346.92 153.617C347.606 152.115 347.021 150.34 345.578 149.536L341.66 147.356C340.121 146.504 338.183 147.058 337.342 148.601L325.503 170.154C324.716 171.589 325.151 173.389 326.511 174.306L330.704 177.124C332.248 178.16 334.354 177.648 335.254 176.022L338.648 169.844C339.155 168.927 340.324 168.617 341.218 169.159L341.684 169.445C342.703 170.07 344.039 169.689 344.576 168.623L348.077 161.712C348.566 160.765 348.238 159.609 347.337 159.05Z" fill="#808DFA"/>
<path d="M414.439 179.483C408.701 174.365 399.952 174.669 394.579 180.162L378.607 196.497C377.361 197.771 375.524 198.278 373.8 197.825L350.057 191.6C348.417 191.171 346.932 190.289 345.769 189.056L338.952 181.836C338.386 181.234 337.366 181.341 337.002 182.08C336.626 182.837 336.394 184.076 336.781 186.083C337.64 190.551 335.046 190.539 332.41 188.43C331.05 187.346 328.945 185.654 327.227 184.266C325.921 183.212 323.995 184.153 323.989 185.827C323.977 187.865 324.269 190.2 325.444 191.504C323.046 198.689 327.072 207.219 333.448 210.663C340.807 214.636 380.474 226.878 380.474 226.878C384.327 228.016 388.495 226.95 391.328 224.108L415.047 200.315C420.868 194.489 420.588 184.969 414.439 179.483Z" fill="#FFF3A1"/>
<path d="M366.965 155.63C364.424 157.471 362.444 160.122 361.269 163.279C358.621 170.398 361.12 178.047 366.703 182.616C369.708 185.077 374.295 185.66 378.851 182.849C381.815 181.02 384.058 178.077 385.358 174.586C387.636 168.468 386.098 162.123 382.03 157.578C378.69 153.855 371.2 152.556 366.965 155.63Z" fill="black"/>
<path d="M218.443 386.382C216.165 377.709 213.631 366.533 212.295 362.738C212.241 362.589 212.056 362.178 211.919 362.089C210.72 361.291 203.683 357.925 195.536 359.283C193.013 359.706 184.353 358.902 180.888 361.529C179.815 362.339 179.409 363.709 179.314 365.05C178.825 372.276 177.62 394.603 177.823 402.139C177.858 403.492 178.789 404.707 180.119 404.975C194.796 407.959 211.865 406.583 219.469 400.847C220.31 400.209 220.781 399.202 220.686 398.148C220.495 396.128 219.97 392.191 218.443 386.382Z" fill="white"/>
<path d="M134.577 328.52L110.328 320.948C109.069 320.555 108.282 319.304 108.467 318L112.212 291.83C112.475 289.983 111.192 288.273 109.344 288.005L94.195 285.694C93.4853 285.592 91.9585 286.123 91.9585 288.16C91.9585 289.155 92.2328 289.709 92.7398 290.317L95.4773 293.611C95.9902 294.224 96.2109 295.035 96.0796 295.821L92.8412 315.837L103.928 339.422L130.868 342.299L134.577 328.52Z" fill="#274D76"/>
<path d="M86.6685 294.755L107.745 327.871C108.312 328.764 109.218 329.396 110.25 329.628L114.974 330.677C116.542 331.022 118.182 330.748 119.548 329.914L121.373 328.8C124.993 326.584 129.401 326.066 133.438 327.382L162.352 336.801L153.901 363.126L125.393 356.179C122.918 355.578 120.484 354.839 118.093 353.963C114.538 352.665 109.338 350.681 106.171 349.126C98.0061 345.117 95.3282 341.995 93.9982 339.505C89.7697 331.588 79.3208 313.645 78.0028 311.524C76.2911 308.772 72.5278 308.534 70.5298 308.015C69.2953 307.694 68.3888 307.152 67.8878 305.978L67.6313 305.382C67.3272 304.673 67.5657 303.851 68.1979 303.41L82.0463 293.748C83.5851 292.676 85.7142 293.134 86.6685 294.755Z" fill="#FFF3A1"/>
<path d="M175.246 354.821L200.76 354.803C202.841 354.791 204.988 355.411 206.086 356.668C206.742 357.419 207.911 359.039 208.531 359.819C208.96 360.367 208.805 361.076 208.185 360.927L205.09 359.819L205.639 361.714C206.014 362.738 205.078 363.203 204.285 362.804L201.201 361.35C201.279 362.208 200.372 362.816 199.603 362.417C198.183 361.678 197.641 361.201 195.679 359.867C195.19 359.539 194.611 359.372 194.021 359.402C188.76 359.664 185.051 360.32 181.842 361.63C179.462 362.601 179.403 365.074 179.361 365.848C179.289 367.153 177.524 371.061 177.524 371.061L160.914 367.647L157.974 356.602L175.246 354.821Z" fill="#274D76"/>
<path d="M165.549 357.764C172.782 357.764 178.646 351.662 178.646 344.134C178.646 336.606 172.782 330.504 165.549 330.504C158.315 330.504 152.452 336.606 152.452 344.134C152.452 351.662 158.315 357.764 165.549 357.764Z" fill="#FFF3A1"/>
<path d="M171.244 376.315C171.244 376.315 163.187 390.529 161.976 398.928C161.588 401.633 163.562 404.117 166.282 404.439C168.691 404.719 172.419 404.856 178.031 404.409C177.22 401.877 179.069 379.371 179.862 370.274C179.969 369.053 178.46 368.398 177.631 369.303L171.244 376.315Z" fill="white"/>
<path d="M198.75 369.541C200.474 373.128 206.98 386.811 208.37 392.304C208.543 392.983 208.006 393.626 207.309 393.585C200.945 393.162 194.802 394.091 192.184 394.568C191.516 394.687 190.919 394.145 190.973 393.472L192.75 371.555C192.78 371.168 193.031 370.828 193.389 370.685L197.426 369.041C197.933 368.833 198.512 369.053 198.75 369.541Z" fill="white"/>
<path d="M206.873 387.878C203.927 380.181 198.327 368.672 198.327 368.672L197.009 369.208L203.259 393.478C204.995 393.46 206.808 393.567 208.621 393.74C208.537 392.584 207.851 390.445 206.873 387.878Z" fill="#808DFA"/>
<path d="M208.627 393.74C208.621 393.638 203.814 389.742 203.814 389.742C202.991 389.117 201.881 389.033 200.981 389.528L191.587 394.669C193.854 394.234 201.237 393.025 208.627 393.74Z" fill="#274D76"/>
<path d="M161.105 348.137C160.885 350.514 161.416 352.748 162.471 354.625C163.181 355.882 164.517 356.692 165.966 356.692C165.972 356.692 165.984 356.692 165.99 356.692C172.515 356.692 177.805 351.187 177.805 344.396C177.805 344.384 177.805 344.366 177.805 344.354C177.793 341.489 175.741 339.052 173.028 338.6C172.199 338.463 171.334 338.427 170.445 338.504C165.543 338.951 161.577 343.044 161.105 348.137Z" fill="black"/>
<path d="M203.36 371.281L200.545 371.609C200.319 371.632 200.205 371.346 200.384 371.209L202.746 369.428C203.67 368.731 203.116 367.266 201.965 367.355C199.406 367.552 196.108 367.826 193.752 368.076C193.365 368.118 193.192 367.593 193.532 367.397C194.587 366.795 195.142 366.503 196.239 365.89C197.808 365.008 196.263 363.769 194.468 363.834C191.11 363.966 187.764 365.985 185.218 365.985C180.614 365.985 167.868 365.365 167.868 365.365C166.861 365.33 165.924 364.817 165.358 363.983L155.004 348.679C152.106 344.855 146.637 344.146 142.861 347.107C139.277 349.912 138.508 355.03 141.114 358.765L156.274 378.168C157.676 379.961 159.805 381.045 162.083 381.122L195.094 380.622C199.03 380.628 201.798 377.065 202.15 375.213C203.164 374.528 203.885 373.777 204.404 373.098C205.006 372.3 204.362 371.162 203.36 371.281Z" fill="#FFF3A1"/>
<path d="M162.739 230.31C162.739 230.31 165.542 240.83 172.61 255.092C182.629 275.304 187.52 283.4 192.673 292.08C198.947 302.648 218.103 313.365 255.062 290.495C293.357 266.803 287.518 251.196 284.978 245.763C283.475 242.546 271.278 219.777 261.158 202.495C257.209 195.752 253.482 189.991 251.001 186.274C248.937 183.182 245.621 181.175 241.924 180.758C231.844 179.62 210.493 179.733 188.54 195.621C158.272 217.531 162.739 230.31 162.739 230.31Z" fill="white"/>
<path d="M286.517 257.332C287.525 252.25 285.33 247.055 281.054 244.112C270.211 236.642 248.973 236.32 222.046 253.31C192.458 271.98 191.772 287.779 196.174 296.53C204.798 305.031 223.394 310.089 255.056 290.495C277.75 276.46 284.942 265.261 286.517 257.332Z" fill="#F2BDBA"/>
<path d="M201.714 295.952C198.034 290.692 197.963 274.214 225.582 256.468C253.422 238.578 277.845 243.666 281.435 253.31C285.025 262.955 265.022 280.618 242.741 291.925C222.582 302.16 205.794 301.784 201.714 295.952Z" fill="black"/>
<path d="M177.799 400.585C175.371 400.579 172.813 400.71 170.254 400.912C164.493 401.371 163.718 403.182 164.26 403.736C164.767 404.254 165.537 404.534 166.282 404.618C168.692 404.898 173.665 405.058 178.962 404.439C177.799 403.158 177.805 402.538 177.799 400.585Z" fill="black"/>
<path d="M218.312 365.115C216.589 362.989 215.605 363.251 212.456 363.203C213.792 367.814 216.117 377.53 218.443 386.388C220.769 395.241 220.781 399.744 220.781 399.744C223.704 399.357 226.059 398.922 231.779 397.963C236.449 397.177 236.866 393.317 234.451 389.742L218.312 365.115Z" fill="white"/>
<path d="M218.497 401.532C218.831 400.686 218.282 399.84 216.881 399.149C214.096 397.767 208.645 396.682 198.023 397.278C188.23 397.826 183.262 400.245 180.763 402.378C179.427 403.521 179.516 404.403 180.697 405.118C195.416 408.686 210.642 406.697 218.497 401.532Z" fill="#F2BDBA"/>
<path d="M232.387 398.071C233.568 397.767 233.753 396.504 233.139 396.063C232.876 395.878 232.566 395.688 232.197 395.497C229.292 394.008 224.652 394.026 220.215 394.556C220.775 397.999 220.877 398.827 220.245 399.995C223.859 399.744 232.036 398.16 232.387 398.071Z" fill="black"/>
<path d="M198.011 226.825C196.275 222.464 196.222 217.603 198.267 214.416C198.744 213.671 199.621 212.456 199.18 211.693L195.339 206.129C194.528 204.723 192.411 205.605 191.438 206.91C186.649 213.361 184.86 221.767 188.439 230.739C193.693 243.934 203.45 247.794 213.505 245.34C215.133 244.94 215.927 243.1 215.086 241.652L212.152 236.797C211.507 235.683 210.273 235.069 208.985 235.171C204.643 235.522 200.349 232.687 198.011 226.825ZM226.656 211.258C219.052 199.231 206.969 197.396 199.055 200.398C197.671 200.923 197.045 202.525 197.784 203.806L202.102 209.65C202.615 210.532 203.629 210.961 204.625 210.77C208.847 209.954 214.036 211.586 217.453 216.745C220.167 220.844 220.161 227.26 215.855 231.382C214.913 232.287 215.008 233.842 215.664 234.974L218.42 239.722C219.511 241.599 221.95 241.777 223.614 240.389C231.415 233.884 231.988 219.694 226.656 211.258Z" fill="#808DFA"/>
<path d="M397.006 210.418C396.594 210.418 396.177 210.311 395.795 210.091C392.873 208.393 387.601 205.075 385.126 201.995C384.428 201.125 384.446 199.856 385.179 198.975L392.926 189.646C393.743 188.657 395.193 188.484 396.225 189.247C398.658 191.052 403.089 194.388 405.445 196.473C406.393 197.313 406.542 198.707 405.791 199.719C403.083 203.377 400.381 207.333 399.016 209.358C398.545 210.043 397.781 210.418 397.006 210.418ZM394.781 189.961C394.429 189.961 394.077 190.11 393.839 190.402L386.092 199.731C385.722 200.178 385.704 200.81 386.056 201.244C388.501 204.289 394.101 207.726 396.398 209.06C396.952 209.382 397.662 209.221 398.02 208.691C399.397 206.654 402.105 202.686 404.825 199.004C405.2 198.492 405.129 197.783 404.646 197.36C402.326 195.305 397.924 191.993 395.503 190.2C395.288 190.039 395.032 189.961 394.781 189.961Z" fill="black"/>
<path d="M509.732 422.495C509.582 422.495 509.433 422.489 509.278 422.471C508.038 422.352 506.923 421.75 506.141 420.785L493.289 404.85C491.762 402.955 491.983 400.197 493.784 398.565L507.99 385.739C508.926 384.893 510.131 384.476 511.384 384.566C512.642 384.655 513.775 385.233 514.586 386.192L528.184 402.378C529.812 404.314 529.556 407.209 527.624 408.835L512.678 421.405C511.843 422.12 510.811 422.495 509.732 422.495ZM494.589 399.453C493.253 400.662 493.092 402.699 494.219 404.105L507.072 420.041C507.65 420.756 508.473 421.202 509.392 421.292C510.31 421.381 511.205 421.101 511.908 420.511L526.854 407.942C528.286 406.738 528.47 404.594 527.272 403.158L513.674 386.972C513.077 386.257 512.231 385.828 511.3 385.769C510.37 385.709 509.475 386.013 508.789 386.639L494.589 399.453Z" fill="black"/>
<path d="M439.523 394.55L438.593 393.805L445.29 385.411C445.684 384.917 445.547 384.399 445.284 384.077C445.022 383.755 444.539 383.517 443.972 383.803L436.404 387.693C435.414 388.199 434.293 387.955 433.601 387.091C432.909 386.228 432.933 385.078 433.649 384.232L440.382 376.291C440.8 375.797 440.662 375.266 440.4 374.939C440.132 374.611 439.648 374.361 439.076 374.665L419.568 384.583L419.025 383.523L438.527 373.604C439.505 373.086 440.638 373.324 441.33 374.188C442.028 375.058 442.01 376.208 441.295 377.059L434.561 385C434.144 385.489 434.275 386.019 434.537 386.347C434.8 386.674 435.283 386.925 435.855 386.633L443.418 382.743C444.39 382.242 445.505 382.475 446.197 383.314C446.889 384.154 446.895 385.298 446.215 386.15L439.523 394.55Z" fill="black"/>
<path d="M471.992 406.902L463.287 430.35L464.405 430.764L473.111 407.316L471.992 406.902Z" fill="black"/>
<path d="M485.65 411.996L484.525 412.391L494.566 440.887L495.691 440.492L485.65 411.996Z" fill="black"/>
<path d="M485.235 431.723L484.055 431.897L486.126 445.906L487.306 445.732L485.235 431.723Z" fill="black"/>
<path d="M471.814 426.322L469.669 437.546L470.841 437.769L472.986 426.546L471.814 426.322Z" fill="black"/>
<path d="M376.352 201.323L375.303 201.892L386.125 221.809L387.173 221.24L376.352 201.323Z" fill="black"/>
<path d="M376.419 211.908L375.273 212.237L378.615 223.848L379.761 223.519L376.419 211.908Z" fill="black"/>
<path d="M371.025 203.212L369.991 220.661L371.182 220.731L372.216 203.282L371.025 203.212Z" fill="black"/>
<path d="M339.501 209.978L338.35 209.668L341.415 198.218C341.606 197.497 342.256 197.051 343.002 197.128C343.741 197.205 344.284 197.783 344.326 198.522L344.666 205.379C344.677 205.569 344.809 205.629 344.892 205.647C344.976 205.665 345.119 205.671 345.208 205.498L349.634 196.777L350.695 197.313L346.276 206.034C345.966 206.642 345.316 206.951 344.648 206.808C343.98 206.665 343.514 206.117 343.479 205.438L343.139 198.582C343.127 198.367 342.972 198.319 342.882 198.313C342.793 198.302 342.632 198.319 342.578 198.522L339.501 209.978Z" fill="black"/>
<path d="M462.115 150.023L461.928 151.199L479.384 153.979L479.572 152.802L462.115 150.023Z" fill="black"/>
<path d="M463.314 155.36L462.88 156.47L479.269 162.863L479.703 161.753L463.314 155.36Z" fill="black"/>
<path d="M463.546 159.961L462.642 160.738L474.231 174.19L475.135 173.413L463.546 159.961Z" fill="black"/>
<path d="M445.786 479.357L445.72 479.351L411.618 475.455L411.755 474.269L445.821 478.159C446.645 478.147 447.092 477.581 447.241 477.057C447.39 476.527 447.289 475.8 446.561 475.371L407.318 456.868C406.095 456.141 405.636 454.777 406.149 453.514C406.662 452.251 407.95 451.59 409.274 451.912L440.4 458.828C441.295 459.042 441.885 458.518 442.124 458C442.356 457.494 442.38 456.725 441.688 456.189L415.614 443.315L416.145 442.249L442.356 455.2C443.585 456.1 443.668 457.506 443.209 458.5C442.75 459.495 441.623 460.341 440.138 459.99L409.012 453.073C408.075 452.847 407.485 453.413 407.258 453.967C407.032 454.515 407.061 455.331 407.878 455.82L447.122 474.323C448.243 474.99 448.72 476.175 448.392 477.379C448.052 478.582 447.032 479.357 445.786 479.357Z" fill="black"/>
<path d="M152.082 366.95C151.956 366.95 151.831 366.944 151.706 366.926C150.96 366.819 150.298 366.396 149.887 365.765L146.762 360.981C145.98 359.79 146.308 358.169 147.495 357.377L151.664 354.583C152.857 353.785 154.479 354.1 155.284 355.28L158.177 359.51C158.934 360.618 158.732 362.107 157.712 362.977L153.781 366.325C153.304 366.736 152.702 366.95 152.082 366.95ZM153.125 355.339C152.851 355.339 152.577 355.417 152.332 355.578L148.163 358.372C147.519 358.807 147.34 359.682 147.764 360.338L150.889 365.121C151.115 365.467 151.473 365.693 151.879 365.753C152.29 365.812 152.696 365.693 153.006 365.425L156.936 362.077C157.491 361.601 157.604 360.79 157.187 360.189L154.294 355.959C154.032 355.554 153.579 355.339 153.125 355.339Z" fill="black"/>
<path d="M163.388 367.403L156.858 374.239L157.721 375.061L164.251 368.225L163.388 367.403Z" fill="black"/>
<path d="M161.399 373.668L159.658 377.182L160.727 377.71L162.468 374.197L161.399 373.668Z" fill="black"/>
<path d="M166.17 367.275L163.736 378.877L164.903 379.122L167.337 367.519L166.17 367.275Z" fill="black"/>
<path d="M179.749 376.642C179.719 376.642 179.695 376.642 179.665 376.642C178.872 376.607 178.198 376.1 177.948 375.35L176.886 372.145L178.019 371.769L179.081 374.974C179.224 375.397 179.6 375.451 179.713 375.451C179.826 375.451 180.208 375.439 180.387 375.028L181.419 372.615C181.669 372.032 182.188 371.615 182.814 371.501C183.441 371.388 184.073 371.585 184.514 372.037L187.633 375.231C187.908 375.511 188.242 375.481 188.468 375.356C188.695 375.231 188.904 374.962 188.814 374.581L187.365 368.386L188.528 368.118L189.977 374.313C190.174 375.147 189.798 375.987 189.047 376.398C188.289 376.809 187.383 376.672 186.781 376.059L183.661 372.866C183.494 372.693 183.262 372.621 183.035 372.669C182.803 372.711 182.612 372.866 182.522 373.08L181.49 375.493C181.186 376.202 180.512 376.642 179.749 376.642Z" fill="black"/>
<path d="M102.866 328.881L94.3247 331.809L94.7119 332.936L103.253 330.008L102.866 328.881Z" fill="black"/>
<path d="M100.503 332.679L95.9111 336.499L96.6745 337.415L101.266 333.595L100.503 332.679Z" fill="black"/>
<path d="M103.907 332.91L100.337 342.083L101.449 342.514L105.019 333.341L103.907 332.91Z" fill="black"/>
<path d="M71.9133 306.181C71.7821 306.181 71.6449 306.169 71.5137 306.139L70.4819 305.913L70.7384 304.751L71.7702 304.977C71.961 305.019 72.1578 304.977 72.3129 304.87C72.4739 304.757 72.5753 304.59 72.5992 304.393L72.7065 303.559C72.7781 303.029 73.0703 302.553 73.5117 302.249C73.953 301.945 74.5076 301.85 75.0265 301.975L77.0781 302.481C77.2988 302.535 77.5254 302.481 77.6924 302.332C77.8654 302.183 77.9489 301.969 77.931 301.742L77.8296 300.599C77.7759 299.991 78.0085 299.407 78.4678 299.008C78.927 298.609 79.5353 298.454 80.1317 298.597L81.4736 298.913C81.6943 298.966 81.915 298.907 82.0879 298.758C82.2549 298.609 82.3444 298.395 82.3205 298.168C82.2549 297.513 82.5292 296.887 83.0541 296.488C83.5789 296.089 84.2588 295.994 84.8731 296.232L86.4118 296.822L85.9824 297.936L84.4437 297.346C84.2171 297.257 83.9726 297.292 83.7757 297.441C83.5789 297.59 83.4835 297.817 83.5074 298.061C83.567 298.675 83.3344 299.252 82.8752 299.657C82.4159 300.063 81.8017 300.217 81.2053 300.074L79.8633 299.759C79.6427 299.711 79.422 299.765 79.249 299.908C79.082 300.057 78.9926 300.265 79.0164 300.491L79.1178 301.635C79.1715 302.243 78.9329 302.839 78.4678 303.232C78.0026 303.625 77.3763 303.78 76.7859 303.631L74.7343 303.125C74.5434 303.077 74.3466 303.113 74.1796 303.226C74.0126 303.339 73.9112 303.506 73.8814 303.708L73.7741 304.542C73.7025 305.061 73.4222 305.531 72.9868 305.835C72.6767 306.061 72.301 306.181 71.9133 306.181Z" fill="black"/>
<path d="M461.262 111.916C461.244 111.916 461.232 111.916 461.214 111.916C460.606 111.898 460.081 111.541 459.843 110.987L458.876 108.747C458.793 108.556 458.626 108.532 458.554 108.532C458.554 108.532 458.554 108.532 458.548 108.532C458.477 108.532 458.304 108.556 458.226 108.753L457.147 111.445L456.038 111.005L457.117 108.312C457.35 107.728 457.904 107.353 458.531 107.341C458.536 107.341 458.542 107.341 458.548 107.341C459.169 107.341 459.723 107.704 459.968 108.27L460.934 110.51C461.012 110.695 461.179 110.719 461.25 110.725C461.316 110.725 461.483 110.713 461.572 110.528L462.27 109.134C462.503 108.669 462.95 108.354 463.463 108.294C463.982 108.229 464.489 108.425 464.823 108.824L465.974 110.165C466.099 110.308 466.254 110.29 466.314 110.278C466.373 110.266 466.522 110.218 466.576 110.034L467.274 107.704C467.429 107.192 467.828 106.799 468.353 106.656C468.872 106.513 469.421 106.65 469.808 107.019L472.063 109.128C472.194 109.253 472.349 109.229 472.409 109.206C472.468 109.188 472.606 109.128 472.647 108.949L473.089 107.043C473.214 106.513 473.59 106.096 474.109 105.923C474.627 105.75 475.182 105.864 475.594 106.215L477.21 107.591C477.353 107.71 477.502 107.675 477.562 107.651C477.621 107.627 477.759 107.561 477.788 107.377L478.093 105.488C478.182 104.928 478.576 104.464 479.112 104.279C479.655 104.094 480.246 104.219 480.663 104.607C480.818 104.75 480.979 104.696 481.045 104.672C481.11 104.642 481.253 104.559 481.253 104.35V102.992H482.446V104.35C482.446 104.976 482.094 105.512 481.522 105.762C480.949 106.012 480.311 105.905 479.852 105.482C479.715 105.351 479.56 105.387 479.5 105.411C479.44 105.429 479.297 105.5 479.267 105.685L478.963 107.573C478.874 108.127 478.504 108.58 477.973 108.777C477.442 108.973 476.87 108.872 476.44 108.503L474.824 107.126C474.687 107.013 474.544 107.043 474.484 107.061C474.431 107.079 474.293 107.144 474.252 107.317L473.81 109.223C473.685 109.766 473.292 110.188 472.755 110.355C472.218 110.516 471.657 110.385 471.246 110.004L468.991 107.895C468.86 107.776 468.717 107.8 468.657 107.812C468.598 107.829 468.461 107.883 468.413 108.05L467.715 110.379C467.554 110.921 467.107 111.326 466.558 111.445C466.003 111.565 465.431 111.368 465.067 110.939L463.916 109.599C463.803 109.468 463.666 109.474 463.606 109.48C463.552 109.486 463.409 109.521 463.332 109.67L462.634 111.064C462.377 111.588 461.853 111.916 461.262 111.916Z" fill="black"/>
<path d="M459.516 102.86L458.915 103.889L464.608 107.205L465.209 106.176L459.516 102.86Z" fill="black"/>
<path d="M464.876 100.668L464.297 101.71L471.695 105.815L472.274 104.773L464.876 100.668Z" fill="black"/>
<path d="M471.64 99.9362L471.129 101.013L477.218 103.898L477.729 102.821L471.64 99.9362Z" fill="black"/>
<path d="M410.073 564.461L408.976 563.997L410.801 559.707C411.242 558.671 412.113 557.902 413.198 557.593C414.284 557.283 415.429 557.479 416.353 558.129L418.25 559.463C418.912 559.928 419.729 560.053 420.498 559.791C421.267 559.535 421.846 558.945 422.096 558.176L422.424 557.158C422.794 555.996 423.719 555.096 424.882 554.745C426.045 554.394 427.315 554.638 428.263 555.394L430.19 556.925C430.852 557.45 431.693 557.61 432.498 557.36C433.303 557.116 433.911 556.508 434.162 555.704L434.657 554.114C435.02 552.946 435.897 552.058 437.066 551.689C438.235 551.314 439.464 551.528 440.442 552.267L442.654 553.941C443.322 554.447 444.163 554.59 444.962 554.328C445.762 554.066 446.352 553.452 446.591 552.648L447.42 549.83C447.783 548.597 448.738 547.656 449.978 547.304C451.213 546.959 452.525 547.269 453.479 548.133L455.256 549.747C455.918 550.349 456.831 550.557 457.69 550.289C458.548 550.027 459.187 549.348 459.401 548.478C459.717 547.179 460.672 546.173 461.96 545.797C463.242 545.422 464.59 545.744 465.562 546.667L468.329 549.294L467.506 550.158L464.739 547.531C464.077 546.905 463.165 546.685 462.294 546.941C461.423 547.197 460.773 547.876 460.558 548.764C460.248 550.051 459.306 551.046 458.042 551.433C456.777 551.82 455.435 551.522 454.457 550.629L452.68 549.014C452.036 548.424 451.147 548.216 450.306 548.454C449.465 548.692 448.815 549.33 448.571 550.164L447.742 552.982C447.396 554.149 446.501 555.073 445.344 555.454C444.181 555.835 442.911 555.621 441.939 554.888L439.726 553.214C439.064 552.714 438.229 552.571 437.436 552.821C436.643 553.071 436.046 553.673 435.802 554.465L435.307 556.056C434.943 557.223 434.024 558.135 432.856 558.498C431.687 558.855 430.416 558.617 429.456 557.855L427.53 556.324C426.874 555.799 426.039 555.639 425.233 555.883C424.428 556.127 423.82 556.723 423.564 557.521L423.236 558.54C422.872 559.678 422.013 560.541 420.88 560.923C419.747 561.304 418.542 561.125 417.564 560.434L415.667 559.1C415.041 558.659 414.266 558.528 413.526 558.736C412.793 558.945 412.196 559.469 411.898 560.172L410.073 564.461Z" fill="black"/>
<path d="M371.098 534.943H369.905V529.23C369.905 528.444 369.5 527.741 368.826 527.342C368.152 526.943 367.335 526.931 366.649 527.306L364.126 528.694C363.065 529.278 361.806 529.26 360.769 528.641C359.725 528.027 359.105 526.937 359.105 525.727V523.762C359.105 523.017 358.747 522.35 358.126 521.933C357.506 521.516 356.749 521.444 356.063 521.736L352.824 523.088C351.775 523.529 350.582 523.416 349.64 522.785C348.691 522.153 348.125 521.099 348.125 519.967V519.317C348.125 518.573 347.773 517.912 347.153 517.495C346.532 517.078 345.781 517 345.095 517.286L341.994 518.555C340.944 518.984 339.757 518.865 338.821 518.233C337.879 517.602 337.318 516.553 337.318 515.421C337.318 514.671 336.96 514.004 336.334 513.593C335.708 513.176 334.95 513.11 334.264 513.402L331.855 514.421C330.925 514.814 329.881 514.772 328.986 514.313C328.092 513.855 327.448 513.033 327.227 512.05L326.917 510.691C326.768 510.048 326.35 509.512 325.766 509.22C325.175 508.922 324.495 508.904 323.893 509.172L319.611 511.049L319.134 509.959L323.416 508.082C324.346 507.677 325.402 507.701 326.308 508.16C327.215 508.618 327.865 509.446 328.092 510.435L328.402 511.794C328.545 512.431 328.962 512.961 329.541 513.259C330.119 513.557 330.799 513.581 331.402 513.33L333.811 512.312C334.861 511.865 336.054 511.978 337.008 512.61C337.956 513.241 338.523 514.296 338.523 515.433C338.523 516.178 338.875 516.839 339.495 517.256C340.115 517.673 340.861 517.745 341.552 517.465L344.654 516.196C345.703 515.767 346.89 515.886 347.827 516.518C348.769 517.149 349.33 518.198 349.33 519.329V519.979C349.33 520.723 349.687 521.391 350.308 521.808C350.928 522.225 351.685 522.296 352.371 522.004L355.61 520.652C356.659 520.217 357.852 520.33 358.794 520.956C359.743 521.587 360.303 522.642 360.303 523.773V525.739C360.303 526.526 360.709 527.229 361.383 527.628C362.057 528.027 362.874 528.039 363.56 527.664L366.083 526.276C367.144 525.692 368.403 525.71 369.44 526.329C370.484 526.943 371.104 528.033 371.104 529.242V534.943H371.098Z" fill="black"/>
<path d="M505.211 352.307C499.7 361.243 485.029 365.925 477.884 356.322C469.946 345.647 475.605 322.944 492.126 321.991C495.895 321.771 499.652 323.004 502.622 325.458C510.161 331.695 511.389 342.287 505.211 352.307Z" fill="black"/>
<path d="M486.371 340.476C484.343 346.737 482.017 353.66 479.101 350.109C477.288 347.899 476.184 342.585 477.479 337.533C478.498 333.554 481.349 329.735 484.182 327.734C485.649 326.697 487.134 326.459 488.321 327.09C491.351 328.693 488.643 333.453 486.371 340.476Z" fill="#74BAAB"/>
<path d="M371.838 166.579C368.778 169.85 365.337 173.43 363.923 169.701C363.047 167.384 363.458 163.303 365.665 160.509C367.4 158.305 370.514 157.054 373.18 157.012C374.563 156.994 375.762 157.519 376.537 158.49C378.493 160.962 375.267 162.91 371.838 166.579Z" fill="#74BAAB"/>
<path d="M171.942 346.171C171.984 344.033 172.067 341.662 173.707 342.531C174.727 343.074 176.689 347.369 174.441 349.996C174.018 350.49 173.391 350.645 172.825 350.544C171.387 350.294 171.894 348.566 171.942 346.171Z" fill="#74BAAB"/>
<path d="M214.853 401.746C215.11 401.192 214.65 400.65 213.505 400.227C211.221 399.387 206.778 398.785 198.16 399.381C190.216 399.929 186.226 401.603 184.228 403.039C183.16 403.807 183.244 404.385 184.222 404.82C196.233 406.857 208.561 405.261 214.853 401.746Z" fill="black"/>
<path d="M423.629 350.729C422.633 346.29 419.896 332.654 419.866 332.517L421.035 332.285C421.064 332.422 423.796 346.04 424.792 350.466L423.629 350.729Z" fill="black"/>
<path d="M435.718 352.176C434.489 350.395 433.416 348.024 432.772 345.677C432.545 344.855 432.336 344.056 432.14 343.288C431.132 339.434 430.338 336.384 428.412 334.626L429.217 333.745C431.406 335.74 432.241 338.939 433.297 342.984C433.493 343.747 433.702 344.539 433.929 345.355C434.543 347.583 435.551 349.823 436.708 351.497L435.718 352.176Z" fill="black"/>
<path d="M441.378 352.45L440.185 352.414C440.215 351.479 440.126 350.258 440.036 348.965C439.947 347.637 439.839 346.136 439.839 344.682C439.839 342.031 440.495 339.446 441.593 337.754L442.595 338.403C441.617 339.91 441.032 342.251 441.032 344.682C441.032 346.088 441.128 347.512 441.223 348.882C441.318 350.204 441.408 351.455 441.378 352.45Z" fill="black"/>
<path d="M480.019 399.834C478.754 399.834 477.508 399.304 476.631 398.285L466.701 386.692L467.608 385.918L477.538 397.51C478.689 398.857 480.734 399.036 482.1 397.904L511.682 370.995C513.304 369.607 515.129 368.445 517.115 367.54L517.61 368.624C515.725 369.482 513.996 370.584 512.469 371.889L482.882 398.803C482.047 399.494 481.027 399.834 480.019 399.834Z" fill="black"/>
<path d="M481.987 451.656C476.888 451.656 471.514 449.457 466.874 443.584L455.447 430.948L456.33 430.15L467.787 442.815C476.172 453.425 487.057 451.322 493.826 446.312C499.241 442.303 506.779 435.893 516.232 427.255L517.038 428.137C507.555 436.798 499.981 443.238 494.535 447.271C491.088 449.815 486.651 451.656 481.987 451.656Z" fill="black"/>
<path d="M407.729 354.279C407.067 353.117 406.519 351.956 405.952 350.502L407.067 350.073C407.616 351.485 408.123 352.569 408.767 353.689L407.729 354.279Z" fill="black"/>
<path d="M414.755 352.194C413.789 350.389 411.976 346.648 410.688 341.894L411.839 341.584C413.091 346.225 414.862 349.871 415.805 351.628L414.755 352.194Z" fill="black"/>
<path d="M497.076 369.684C487.432 369.684 478.582 364.424 473.978 355.953L475.027 355.381C479.423 363.465 487.874 368.493 497.076 368.493V369.684Z" fill="black"/>
<path d="M335.391 190.408C334.443 190.408 333.28 189.896 332.046 188.907C330.686 187.823 328.581 186.125 326.857 184.743L327.608 183.814C329.332 185.202 331.431 186.894 332.791 187.978C334.061 188.996 335.296 189.449 335.863 189.104C336.376 188.794 336.495 187.739 336.203 186.202C335.851 184.368 335.94 182.896 336.477 181.818L337.544 182.348C337.258 182.926 336.996 184.022 337.371 185.976C337.783 188.121 337.485 189.515 336.477 190.122C336.161 190.313 335.791 190.408 335.391 190.408Z" fill="black"/>
<path d="M379.036 196.914L378.184 196.08L394.155 179.745C399.761 174.008 408.851 173.698 414.838 179.036L414.045 179.924C408.534 175.009 400.173 175.295 395.014 180.573L379.036 196.914Z" fill="black"/>
<path d="M414.622 199.902L398.417 216.167L399.262 217.007L415.468 200.742L414.622 199.902Z" fill="black"/>
<path d="M158.153 354.398L154.515 349.019C153.233 347.327 151.33 346.225 149.189 345.945C147.048 345.671 144.931 346.249 143.231 347.577L142.498 346.642C144.454 345.111 146.881 344.444 149.344 344.765C151.807 345.087 153.984 346.35 155.487 348.328L159.143 353.731L158.153 354.398Z" fill="black"/>
<path d="M178.066 383.227L177.36 397.101L178.551 397.161L179.258 383.287L178.066 383.227Z" fill="black"/>
<path d="M213.963 366.216L212.806 366.507L218.637 389.614L219.793 389.323L213.963 366.216Z" fill="black"/>
</svg>
