<svg width="199" height="138" viewBox="0 0 199 138" fill="none" xmlns="http://www.w3.org/2000/svg">
<path d="M181.377 132.96C181.381 134.617 182.727 135.957 184.384 135.953C186.041 135.949 187.381 134.603 187.377 132.946L181.377 132.96ZM77.435 74.7076L75.7646 77.1995L75.7653 77.1999L77.435 74.7076ZM133.539 31.0552L130.64 31.8298L130.64 31.8302L133.539 31.0552ZM0.654757 39.8241C-0.313078 41.1689 -0.00749806 43.0436 1.33728 44.0114C2.68207 44.9793 4.55683 44.6737 5.52467 43.3289L0.654757 39.8241ZM197.705 123.94C198.794 122.691 198.664 120.795 197.415 119.707C196.166 118.618 194.271 118.748 193.182 119.997L197.705 123.94ZM184.493 134.533L182.827 137.028C184.081 137.866 185.764 137.642 186.755 136.504L184.493 134.533ZM171.778 122.857C170.313 122.084 168.498 122.646 167.725 124.111C166.953 125.577 167.514 127.392 168.98 128.164L171.778 122.857ZM184.377 132.953C187.377 132.946 187.377 132.945 187.377 132.944C187.377 132.943 187.377 132.941 187.377 132.939C187.377 132.936 187.377 132.931 187.377 132.925C187.377 132.913 187.377 132.896 187.377 132.875C187.377 132.832 187.376 132.77 187.375 132.691C187.373 132.531 187.37 132.299 187.363 131.999C187.349 131.398 187.322 130.523 187.271 129.408C187.169 127.179 186.967 123.989 186.571 120.113C185.779 112.368 184.206 101.839 181.071 90.7426C174.852 68.7271 162.213 43.5634 136.36 34.5175L134.378 40.1809C157.354 48.22 169.22 70.8583 175.297 92.3736C178.311 103.042 179.834 113.211 180.602 120.723C180.985 124.474 181.179 127.552 181.277 129.684C181.326 130.75 181.351 131.578 181.364 132.136C181.371 132.415 181.374 132.625 181.376 132.764C181.376 132.834 181.377 132.885 181.377 132.918C181.377 132.934 181.377 132.946 181.377 132.953C181.377 132.957 181.377 132.959 181.377 132.96C181.377 132.961 181.377 132.961 181.377 132.961C181.377 132.961 181.377 132.96 184.377 132.953ZM136.36 34.5175C110.975 25.6357 90.7403 32.0766 79.2025 42.8415C73.4863 48.1748 69.8297 54.657 68.9527 60.8899C68.0618 67.2221 70.0783 73.3876 75.7646 77.1995L79.1055 72.2157C75.6693 69.9122 74.2626 66.2145 74.8942 61.7259C75.5398 57.138 78.3515 51.8415 83.2957 47.2285C93.0788 38.1007 110.933 31.9777 134.378 40.1809L136.36 34.5175ZM75.7653 77.1999C81.0931 80.7694 88.2661 81.897 95.5622 81.226C102.909 80.5504 110.712 78.0283 117.582 73.8878C131.355 65.5863 141.816 50.3991 136.437 30.2803L130.64 31.8302C135.139 48.6532 126.671 61.4039 114.484 68.749C108.374 72.4318 101.44 74.6602 95.0127 75.2512C88.5355 75.8469 82.8995 74.7575 79.1048 72.2152L75.7653 77.1999ZM136.437 30.2807C133.671 19.9319 125.699 12.301 115.253 7.45137C104.811 2.60331 91.6493 0.396421 77.822 0.947598C50.2122 2.04814 19.0958 14.2006 0.654757 39.8241L5.52467 43.3289C22.6274 19.565 51.8 7.98962 78.061 6.94283C91.169 6.42033 103.338 8.5349 112.727 12.8935C122.112 17.2505 128.471 23.7114 130.64 31.8298L136.437 30.2807ZM193.182 119.997L182.232 132.562L186.755 136.504L197.705 123.94L193.182 119.997ZM184.493 134.533C186.16 132.039 186.16 132.039 186.16 132.039C186.16 132.039 186.16 132.039 186.16 132.038C186.159 132.038 186.159 132.038 186.158 132.037C186.156 132.036 186.154 132.035 186.152 132.033C186.146 132.029 186.138 132.024 186.127 132.017C186.105 132.002 186.073 131.981 186.031 131.953C185.948 131.897 185.825 131.815 185.668 131.711C185.354 131.502 184.903 131.202 184.352 130.837C183.252 130.108 181.753 129.12 180.162 128.082C177.051 126.053 173.382 123.702 171.778 122.857L168.98 128.164C170.276 128.848 173.664 131.008 176.885 133.108C178.46 134.135 179.946 135.116 181.039 135.84C181.585 136.201 182.033 136.499 182.344 136.706C182.499 136.809 182.62 136.89 182.702 136.944C182.743 136.972 182.775 136.993 182.795 137.007C182.806 137.014 182.814 137.019 182.819 137.023C182.822 137.024 182.824 137.026 182.825 137.026C182.826 137.027 182.826 137.027 182.826 137.027C182.826 137.027 182.827 137.028 182.827 137.028C182.827 137.028 182.827 137.028 184.493 134.533Z" fill="#4C5FF7"/>
</svg>
