<svg width="426" height="99" viewBox="0 0 426 99" fill="none" xmlns="http://www.w3.org/2000/svg">
<path d="M12.7571 101V25.2236C12.7571 11.9688 23.5022 1.22363 36.757 1.22363L96.3785 1.22363L168 1.22363C174.627 1.22363 180 6.59622 180 13.2236V26C180 32.6274 185.373 38 192 38L306 38L401.5 38C414.755 38 425.5 48.7452 425.5 62V101" stroke="url(#paint0_linear_193_60211)"/>
<g filter="url(#filter0_f_193_60211)">
<circle cx="13" cy="44.5" r="8" fill="#4C5FF7"/>
</g>
<circle cx="13" cy="44.5" r="2.75" stroke="#F9F9FF" stroke-opacity="0.75" stroke-width="0.5"/>
<g filter="url(#filter1_f_193_60211)">
<circle cx="231" cy="38" r="8" fill="#11A8C7"/>
</g>
<circle cx="231" cy="38" r="2.75" stroke="#F9F9FF" stroke-opacity="0.75" stroke-width="0.5"/>
<defs>
<filter id="filter0_f_193_60211" x="0" y="31.5" width="26" height="26" filterUnits="userSpaceOnUse" color-interpolation-filters="sRGB">
<feFlood flood-opacity="0" result="BackgroundImageFix"/>
<feBlend mode="normal" in="SourceGraphic" in2="BackgroundImageFix" result="shape"/>
<feGaussianBlur stdDeviation="2.5" result="effect1_foregroundBlur_193_60211"/>
</filter>
<filter id="filter1_f_193_60211" x="218" y="25" width="26" height="26" filterUnits="userSpaceOnUse" color-interpolation-filters="sRGB">
<feFlood flood-opacity="0" result="BackgroundImageFix"/>
<feBlend mode="normal" in="SourceGraphic" in2="BackgroundImageFix" result="shape"/>
<feGaussianBlur stdDeviation="2.5" result="effect1_foregroundBlur_193_60211"/>
</filter>
<linearGradient id="paint0_linear_193_60211" x1="-10" y1="-8.49999" x2="444.945" y2="181.809" gradientUnits="userSpaceOnUse">
<stop stop-color="#F9F9FF"/>
<stop offset="1" stop-color="#EBEDFF" stop-opacity="0"/>
</linearGradient>
</defs>
</svg>
