<svg width="153" height="34" viewBox="0 0 153 34" fill="none" xmlns="http://www.w3.org/2000/svg">
<g clip-path="url(#clip0_195_60326)">
<path d="M29.9138 8.28475C27.067 3.91911 22.1146 1.02954 16.481 1.02954C7.67085 1.02954 0.526085 8.09649 0.498047 16.8243V16.9137C0.512066 22.7446 3.70292 27.8365 8.44606 30.576H8.44666C9.1043 30.9559 9.79179 31.2908 10.5049 31.576V31.5722C11.6095 32.0125 12.7581 32.329 13.9292 32.517C10.5049 27.6412 10.5201 27.6629 13.9292 32.517C10.508 27.6431 13.9292 32.517 10.508 27.6431C10.5068 27.6425 10.5058 27.6419 10.5049 27.6412C6.67967 25.5499 4.08811 21.5125 4.08811 16.8754C4.08811 10.0893 9.63636 4.58876 16.4813 4.58876C19.9535 4.58876 23.0918 6.00417 25.3415 8.28506C25.3415 8.28506 24.834 8.28475 29.9138 8.28475Z" fill="url(#paint0_linear_195_60326)"/>
<path d="M13.9304 32.5336V21.2557H13.9307C13.9472 20.3556 14.637 19.6079 15.5403 19.5106H22.9224C24.5237 19.5106 24.9685 16.1286 23.0558 16.1286H13.615C12.0053 16.2989 10.7223 17.538 10.5091 19.1287C10.5079 19.7863 10.5066 21.7198 10.5063 24.1305V24.141C10.5066 25.2076 10.5079 26.3804 10.5091 27.6597C10.5079 27.6591 10.5069 27.6584 10.506 27.6578C13.9304 32.5336 10.506 27.6578 13.9304 32.5336Z" fill="url(#paint1_linear_195_60326)"/>
<path d="M13.8159 11.4781C18.9949 11.4686 23.3369 11.4636 26.8416 11.4636C27.1092 11.4229 27.3698 11.3555 27.6193 11.2636C28.433 10.9651 29.133 10.4067 29.602 9.66562C30.0573 8.9451 30.1054 8.51742 29.8998 8.26753C29.4183 7.68234 27.5449 8.0722 26.2479 7.96028H13.8918C11.688 8.09705 9.96078 9.88962 9.92322 12.0783C9.93242 13.0417 9.93242 14.0556 9.92322 15.1192C10.3355 13.2236 11.8836 11.7763 13.8159 11.4781Z" fill="url(#paint2_linear_195_60326)"/>
<path d="M42.7074 7.96228C43.8881 7.96228 45.0805 7.9737 46.2843 7.99654C47.5113 7.99654 48.7152 8.01939 49.8959 8.06508C51.0998 8.08793 52.211 8.15646 53.2297 8.27068L53.0213 11.4233H44.2007C43.5062 11.4233 42.9853 11.5832 42.638 11.903C42.2907 12.2228 42.1171 12.7254 42.1171 13.4108V31.6752H37.7762V12.5541C37.7762 11.1149 38.2277 9.99547 39.1306 9.1959C40.0335 8.37349 41.2257 7.96228 42.7074 7.96228ZM38.3666 18.1054H51.7017V21.258H38.3666V18.1054Z" fill="#4C5FF7"/>
<path d="M61.0025 20.7391V31.6752H56.8353V19.1868L61.0025 20.7391Z" fill="#4C5FF7"/>
<path d="M76.9657 14.4388C80.1375 14.4388 81.7228 15.9808 81.7228 19.0649V31.6753H77.5211V20.3328C77.5211 19.419 77.3593 18.7908 77.0351 18.4481C76.7108 18.1054 76.167 17.9341 75.4029 17.9341C74.5464 17.9341 73.6668 18.1282 72.7634 18.5166C71.8607 18.8821 70.7724 19.419 69.4992 20.1272L69.3258 17.6257C70.5759 16.5977 71.8491 15.8095 73.1455 15.2612C74.4418 14.7129 75.7156 14.4388 76.9657 14.4388ZM69.1865 14.85L69.6032 18.1397L69.9505 18.6194V31.6753H65.7488V14.85H69.1865Z" fill="#4C5FF7"/>
<path d="M93.9737 14.4388C94.5522 14.4388 95.1891 14.4617 95.8838 14.5073C96.5779 14.553 97.2842 14.6444 98.002 14.7815C98.7198 14.9186 99.3677 15.1128 99.9468 15.364L99.4608 17.9683C98.6036 17.9226 97.7471 17.8884 96.8906 17.8656C96.0572 17.8427 95.3278 17.8313 94.7031 17.8313C93.5223 17.8313 92.5843 17.9912 91.8902 18.311C91.2186 18.608 90.7325 19.1563 90.4314 19.9558C90.1303 20.7326 89.98 21.8291 89.98 23.2455C89.98 24.6619 90.1303 25.7698 90.4314 26.5694C90.7325 27.3462 91.2186 27.8945 91.8902 28.2143C92.5843 28.5341 93.5223 28.694 94.7031 28.694C95.0504 28.694 95.5018 28.6825 96.0572 28.6597C96.6363 28.6369 97.2495 28.6026 97.898 28.5569C98.569 28.5112 99.2174 28.4541 99.8422 28.3856L100.259 31.0584C99.3561 31.4239 98.3494 31.6867 97.238 31.8466C96.1266 32.0065 95.0273 32.0865 93.939 32.0865C91.9017 32.0865 90.2696 31.8009 89.0426 31.2297C87.8156 30.6586 86.9238 29.7334 86.3684 28.4541C85.8361 27.152 85.5697 25.4157 85.5697 23.2455C85.5697 21.0752 85.8477 19.3505 86.4031 18.0712C86.9591 16.769 87.8503 15.8438 89.0773 15.2955C90.3043 14.7244 91.9364 14.4388 93.9737 14.4388Z" fill="#4C5FF7"/>
<path d="M112.275 14.4388C113.641 14.4388 114.786 14.6216 115.713 14.9871C116.662 15.3298 117.38 15.9237 117.866 16.769C118.352 17.6142 118.595 18.7794 118.595 20.2643V31.6753H115.261L114.671 28.0429L114.358 27.5632V20.23C114.358 19.3391 114.15 18.6994 113.733 18.311C113.317 17.8998 112.518 17.6942 111.337 17.6942C110.457 17.6942 109.346 17.7285 108.004 17.797C106.683 17.8656 105.352 17.9569 104.01 18.0712L103.628 15.2269C104.438 15.067 105.352 14.93 106.371 14.8158C107.39 14.7015 108.42 14.6102 109.462 14.5416C110.504 14.4731 111.441 14.4388 112.275 14.4388ZM116.789 21.3266L116.754 23.8966H108.941C108.246 23.9194 107.749 24.1022 107.448 24.4449C107.147 24.7876 106.996 25.2558 106.996 25.8498V26.7751C106.996 27.4604 107.182 27.9858 107.552 28.3513C107.922 28.694 108.501 28.8653 109.288 28.8653C109.913 28.8653 110.608 28.7397 111.372 28.4884C112.136 28.2371 112.888 27.8716 113.629 27.3918C114.393 26.9121 115.076 26.341 115.678 25.6785V27.8373C115.446 28.18 115.111 28.5912 114.671 29.0709C114.231 29.5279 113.687 29.9847 113.039 30.4416C112.414 30.8985 111.684 31.2755 110.851 31.5724C110.041 31.8694 109.137 32.0179 108.142 32.0179C107.123 32.0179 106.209 31.8466 105.399 31.5039C104.588 31.1384 103.952 30.613 103.489 29.9276C103.026 29.2194 102.794 28.3513 102.794 27.3233V25.5414C102.794 24.2164 103.234 23.1884 104.114 22.4574C105.017 21.7035 106.244 21.3266 107.795 21.3266H116.789Z" fill="#4C5FF7"/>
<path d="M126.427 14.85L126.983 18.1397L127.365 18.6194V31.6753H123.163V14.85H126.427ZM134.762 14.4388L134.345 18.2767H133.13C132.227 18.2767 131.313 18.4253 130.386 18.7222C129.46 19.0192 128.303 19.4647 126.914 20.0587L126.636 17.6257C127.84 16.6205 129.067 15.8438 130.317 15.2955C131.567 14.7244 132.771 14.4388 133.928 14.4388H134.762Z" fill="#4C5FF7"/>
<path d="M143.137 14.4388C144.295 14.4388 145.429 14.5987 146.541 14.9185C147.652 15.2155 148.659 15.7181 149.562 16.4263L149.284 18.5166C148.381 18.2653 147.571 18.0482 146.853 17.8655C146.136 17.6827 145.337 17.5914 144.457 17.5914C143.623 17.5914 142.952 17.7398 142.443 18.0368C141.957 18.311 141.586 18.8478 141.332 19.6474C141.1 20.447 140.984 21.612 140.984 23.1426C140.984 24.6047 141.1 25.7355 141.332 26.5351C141.563 27.3118 141.922 27.8601 142.408 28.1799C142.895 28.4769 143.531 28.6254 144.318 28.6254C144.943 28.6254 145.499 28.5569 145.985 28.4198C146.471 28.2599 146.969 28.0314 147.478 27.7345C147.987 27.4146 148.578 27.0149 149.249 26.5351L149.596 28.8653C148.809 29.7562 147.837 30.5215 146.68 31.1612C145.545 31.778 144.226 32.0864 142.721 32.0864C140.545 32.0864 138.993 31.3325 138.068 29.8247C137.141 28.2942 136.678 26.0782 136.678 23.1769C136.678 20.9609 136.91 19.2248 137.373 17.9683C137.859 16.689 138.577 15.7866 139.526 15.2612C140.498 14.7129 141.702 14.4388 143.137 14.4388ZM153 7.68811V31.6752H149.7L149.249 28.6597L148.798 28.317V17.0773L149.006 16.5976C148.913 15.9351 148.856 15.2726 148.832 14.6101C148.809 13.9248 148.798 13.228 148.798 12.5198V7.68811H153Z" fill="#4C5FF7"/>
<path d="M59.9608 14.85C60.7942 14.85 61.2109 15.2612 61.2109 16.0836V18.0026C61.2109 18.825 60.7942 19.2362 59.9608 19.2362H58.0855C57.252 19.2362 58.0855 19.2362 56.8353 19.1868V16.0836C56.8353 15.2612 57.252 14.85 58.0855 14.85H59.9608Z" fill="#4C5FF7"/>
</g>
<defs>
<linearGradient id="paint0_linear_195_60326" x1="28.1256" y1="6.09357" x2="10.5083" y2="20.2593" gradientUnits="userSpaceOnUse">
<stop offset="0.170228" stop-color="#33D2F2"/>
<stop offset="1" stop-color="#4C5FF7"/>
</linearGradient>
<linearGradient id="paint1_linear_195_60326" x1="20.5587" y1="16.1286" x2="11.7802" y2="29.2295" gradientUnits="userSpaceOnUse">
<stop stop-color="#52F3A7"/>
<stop offset="1" stop-color="#4C5FF7"/>
</linearGradient>
<linearGradient id="paint2_linear_195_60326" x1="28.5653" y1="8.05241" x2="8.79438" y2="15.6895" gradientUnits="userSpaceOnUse">
<stop stop-color="#33D2F2"/>
<stop offset="0.145851" stop-color="#33D2F2"/>
<stop offset="1" stop-color="#52F3A7"/>
</linearGradient>
<clipPath id="clip0_195_60326">
<rect width="153" height="33" fill="white" transform="translate(0 0.5)"/>
</clipPath>
</defs>
</svg>
