<svg width="193" height="21" viewBox="0 0 193 21" fill="none" xmlns="http://www.w3.org/2000/svg">
<g clip-path="url(#clip0_202_40527)">
<path d="M162.947 21H170.446V13.4553H172.957L182.203 20.9985H193L180.064 10.6144L192.093 0H181.49L173.031 7.38471H170.18V0.00143699H162.948V21H162.947ZM22.0492 0.00143699L33.5029 20.9985H25.5345L23.5475 17.4374H10.34L8.31299 20.9985H0L11.7715 0.00143699H22.0492ZM20.4231 12.1221L16.8814 6.00021L16.8562 5.9504L13.3397 12.1222L20.4231 12.1221ZM34.5914 20.9956H42.1159V13.4553H44.624L53.8725 20.9985H64.6699L51.7045 10.6144L63.7567 0.00143699H53.1568L44.6968 7.38471H41.8203V0.00143699H34.5899V20.9956H34.5914ZM79.0551 0.00143699C81.9077 0.00143699 84.7604 0.00143699 87.6131 0.00143699C88.8931 0.00143699 91.3018 1.14834 92.1141 3.61531C92.7779 5.6907 92.31 9.10661 90.5148 10.3548C91.8186 10.8914 92.7036 12.9186 92.8269 15.0174V15.8475C92.801 16.214 92.7542 16.5779 92.6785 16.9197C92.2092 19.24 90.3664 20.9971 88.8918 20.9971C85.5951 20.9971 82.3237 20.9971 79.0537 20.9971C74.7235 20.9971 70.3962 20.9971 66.0912 20.9971C66.0705 14.0098 66.0705 7.00488 66.0452 0C70.3754 0.00143657 74.7279 0.00143699 79.0552 0.00143699H79.0551ZM79.0551 15.1611H84.3907C85.0307 15.1611 85.5697 14.6478 85.5697 14.0391C85.5697 13.4319 85.0292 12.9391 84.3907 12.9391H72.8582V15.1611H79.0551ZM79.0551 7.61794H84.0966C84.7396 7.61794 85.2549 7.10296 85.2549 6.49302C85.2549 5.88286 84.7396 5.37095 84.0966 5.37095H72.8597V7.61646H79.0551V7.61794ZM128.44 0.00143699V20.9985H136.037V6.89633L146.852 20.9956H158.568V0.00143699H151.067V14.6712L140.05 0.00143699H128.44ZM115.672 0.00143699L127.124 20.9985H119.181L117.206 17.5093H103.997L102.001 20.9985H93.6911L105.461 0.00143699H115.672ZM114.151 12.1221L110.584 6.00021L110.559 5.9504L107.042 12.1222L114.151 12.1221Z" fill="#DF392E"/>
</g>
<defs>
<clipPath id="clip0_202_40527">
<rect width="193" height="21" fill="white"/>
</clipPath>
</defs>
</svg>
