<svg width="164" height="48" viewBox="0 0 164 48" fill="none" xmlns="http://www.w3.org/2000/svg">
<g clip-path="url(#clip0_172_39512)">
<path d="M45.2503 14.0132H52.8724C57.7318 14.0132 61.746 16.8248 61.746 23.2443V24.5932C61.746 31.0614 57.9918 33.9705 53.0187 33.9705H45.2503V14.0132ZM49.5083 17.6374V30.3301H52.7749C55.5378 30.3301 57.3905 28.5261 57.3905 24.5119V23.4556C57.3905 19.4413 55.4402 17.6374 52.6287 17.6374H49.5083ZM64.005 17.8324H67.4179L67.9705 21.5866C68.6205 19.035 70.2782 17.6699 73.2848 17.6699H74.3412V21.9766H72.586C69.1243 21.9766 68.2793 23.1793 68.2793 26.5922V34.0193H64.07V17.8324H64.005ZM75.1863 26.2509V25.7958C75.1863 20.3839 78.648 17.4261 83.361 17.4261C88.1716 17.4261 91.5357 20.3839 91.5357 25.7958V26.2509C91.5357 31.5653 88.2691 34.4256 83.361 34.4256C78.1442 34.3768 75.1863 31.5815 75.1863 26.2509ZM87.229 26.2021V25.7958C87.229 22.7892 85.7175 20.9853 83.3123 20.9853C80.9557 20.9853 79.3956 22.643 79.3956 25.7958V26.2021C79.3956 29.1112 80.907 30.7689 83.3123 30.7689C85.7175 30.7202 87.229 29.1112 87.229 26.2021ZM93.746 17.8324H97.2564L97.6627 20.8878C98.5078 18.84 100.312 17.4261 102.977 17.4261C107.089 17.4261 109.803 20.3839 109.803 25.8608V26.3159C109.803 31.6303 106.796 34.4418 102.977 34.4418C100.426 34.4418 98.6703 33.288 97.809 31.4352V39.6099H93.6972L93.746 17.8324ZM105.529 26.2021V25.8446C105.529 22.6267 103.871 21.034 101.661 21.034C99.3041 21.034 97.744 22.838 97.744 25.8446V26.1534C97.744 29.0137 99.2554 30.8177 101.612 30.8177C104.033 30.7689 105.529 29.225 105.529 26.2021ZM116.027 31.0289L115.67 33.9868H112.062V12.4205H116.174V20.6927C117.084 18.58 118.888 17.4261 121.439 17.4261C125.307 17.4749 128.168 20.1402 128.168 25.5033V26.0071C128.168 31.3702 125.453 34.4418 121.342 34.4418C118.628 34.3768 116.872 33.1254 116.027 31.0289ZM123.845 26.0071V25.6008C123.845 22.643 122.236 20.9853 119.977 20.9853C117.669 20.9853 116.06 22.838 116.06 25.6496V26.0071C116.06 29.0137 117.62 30.7689 119.928 30.7689C122.398 30.7689 123.845 29.225 123.845 26.0071ZM129.971 26.2509V25.7958C129.971 20.3839 133.433 17.4261 138.146 17.4261C142.957 17.4261 146.321 20.3839 146.321 25.7958V26.2509C146.321 31.5653 143.006 34.4256 138.146 34.4256C132.929 34.3768 129.971 31.5815 129.971 26.2509ZM142.047 26.2021V25.7958C142.047 22.7892 140.535 20.9853 138.13 20.9853C135.773 20.9853 134.213 22.643 134.213 25.7958V26.2021C134.213 29.1112 135.725 30.7689 138.13 30.7689C140.551 30.7202 142.047 29.1112 142.047 26.2021ZM151.83 25.6008L146.158 17.8324H151.018L154.284 22.6917L157.6 17.8324H162.41L156.657 25.5521L162.719 33.9868H157.957L154.252 28.6237L150.644 33.9868H145.671L151.83 25.6008Z" fill="black"/>
<path d="M19.0522 14.0132L9.62612 20.0264L19.0522 26.0396L9.62612 32.0528L0.200012 26.0071L9.62612 19.9939L0.200012 14.0132L9.62612 8L19.0522 14.0132ZM9.57736 33.9868L19.0035 27.9736L28.4296 33.9868L19.0035 40L9.57736 33.9868ZM19.0522 26.0071L28.4783 19.9939L19.0522 14.0132L28.4296 8L37.8557 14.0132L28.4296 20.0264L37.8557 26.0396L28.4296 32.0528L19.0522 26.0071Z" fill="#0061FF"/>
</g>
<defs>
<clipPath id="clip0_172_39512">
<rect width="163" height="48" fill="white" transform="translate(0.200012)"/>
</clipPath>
</defs>
</svg>
