<svg width="122" height="48" viewBox="0 0 122 48" fill="none" xmlns="http://www.w3.org/2000/svg">
<g clip-path="url(#clip0_172_39511)">
<path d="M38.7253 32.4262L40.1934 28.9948C41.8009 30.1852 43.8975 30.8153 45.9947 30.8153C47.5325 30.8153 48.5109 30.2203 48.5109 29.3101C48.4758 26.7888 39.2496 28.7497 39.1794 22.4111C39.1443 19.1896 42.0104 16.7035 46.0649 16.7035C48.4758 16.7035 50.8878 17.299 52.6 18.6648L51.2281 22.1695C49.6527 21.1565 47.7069 20.4502 45.8549 20.4502C44.5968 20.4502 43.7577 21.0452 43.7577 21.8161C43.7928 24.3022 53.0897 22.9364 53.1944 28.9948C53.1944 32.2864 50.3981 34.5976 46.4137 34.5976C43.4785 34.5976 40.7874 33.8974 38.7248 32.4262H38.7253ZM97.1833 27.7522C96.8127 28.4107 96.2737 28.9587 95.6215 29.3401C94.9692 29.7215 94.2273 29.9225 93.4717 29.9226C91.1169 29.9226 89.2082 28.0099 89.2082 25.6505C89.2082 23.2912 91.1169 21.3785 93.4717 21.3785C94.2273 21.3786 94.9692 21.5796 95.6215 21.961C96.2737 22.3424 96.8127 22.8904 97.1833 23.5489L101.265 21.2833C99.7361 18.551 96.8199 16.7035 93.4717 16.7035C88.54 16.7035 84.5422 20.7089 84.5422 25.6505C84.5422 30.5917 88.54 34.5976 93.4717 34.5976C96.8199 34.5976 99.7361 32.75 101.265 30.0178L97.1833 27.7522ZM55.843 34.2472H60.9455V9.25565H55.8435L55.843 34.2472ZM103.842 9.25565V34.2472H108.944V26.7598L114.991 34.2472H121.513L113.824 25.3523L120.953 17.0524H114.711L108.944 23.9529V9.25565H103.842ZM76.6658 17.0534V19.0849C75.8272 17.6839 73.7651 16.7035 71.5983 16.7035C67.1248 16.7035 63.5951 20.6607 63.5951 25.633C63.5951 30.6052 67.1248 34.5976 71.5983 34.5976C73.7651 34.5976 75.8272 33.6172 76.6658 32.2162V34.2472H81.7683V17.0534H76.6658ZM76.6658 27.7868C75.932 29.0123 74.3942 29.9221 72.682 29.9221C70.3267 29.9221 68.4179 28.0099 68.4179 25.6505C68.4179 23.2912 70.3267 21.3785 72.682 21.3785C74.3942 21.3785 75.932 22.3238 76.6658 23.584V27.7868Z" fill="black"/>
<path d="M11.778 8.70361C10.1245 8.70361 8.78416 10.0469 8.78416 11.7035C8.78376 12.0971 8.86089 12.4868 9.01113 12.8506C9.16138 13.2143 9.38179 13.5449 9.6598 13.8235C9.93781 14.1021 10.268 14.3231 10.6314 14.4741C10.9949 14.6251 11.3845 14.703 11.778 14.7034H14.7724V11.7035C14.7731 10.9086 14.458 10.1461 13.8965 9.58348C13.3349 9.0209 12.5729 8.70441 11.778 8.70361ZM11.778 16.7033H3.79386C2.14029 16.7033 0.799988 18.0466 0.799988 19.7037C0.799988 21.3603 2.14029 22.7036 3.79386 22.7036H11.7785C13.4316 22.7036 14.7724 21.3603 14.7724 19.7037C14.7724 18.0466 13.4316 16.7033 11.778 16.7033Z" fill="#36C5F0"/>
<path d="M30.7411 19.7037C30.7411 18.0466 29.4003 16.7033 27.7467 16.7033C26.0932 16.7033 24.7528 18.0466 24.7528 19.7037V22.7036H27.7467C28.5416 22.7028 29.3036 22.3863 29.8651 21.8237C30.4267 21.2612 30.7418 20.4986 30.7411 19.7037ZM22.7569 19.7037V11.7035C22.7576 10.9086 22.4425 10.1461 21.881 9.58348C21.3194 9.0209 20.5574 8.70441 19.7626 8.70361C18.109 8.70361 16.7687 10.0469 16.7687 11.7035V19.7032C16.7687 21.3608 18.109 22.7041 19.7626 22.7041C20.5574 22.7033 21.3194 22.3868 21.881 21.8242C22.4425 21.2617 22.7576 20.4991 22.7569 19.7042" fill="#2EB67D"/>
<path d="M19.7626 38.7036C20.5574 38.7028 21.3194 38.3863 21.881 37.8237C22.4425 37.2612 22.7576 36.4986 22.7569 35.7037C22.7576 34.9088 22.4425 34.1463 21.881 33.5837C21.3194 33.0211 20.5574 32.7046 19.7626 32.7038H16.7687V35.7037C16.7687 37.3603 18.109 38.7036 19.7626 38.7036ZM19.7626 30.7039H27.7472C29.4003 30.7039 30.7411 29.3606 30.7411 27.7035C30.7418 26.9086 30.4267 26.146 29.8651 25.5835C29.3036 25.0209 28.5416 24.7044 27.7467 24.7036H19.7626C18.109 24.7036 16.7687 26.0469 16.7687 27.7035C16.7683 28.0971 16.8454 28.4868 16.9957 28.8506C17.1459 29.2143 17.3663 29.5449 17.6443 29.8235C17.9223 30.1021 18.2525 30.3231 18.6159 30.4741C18.9794 30.6251 19.369 30.703 19.7626 30.7034" fill="#ECB22E"/>
<path d="M0.799989 27.7035C0.799594 28.0971 0.87672 28.4868 1.02696 28.8506C1.1772 29.2143 1.39762 29.5449 1.67563 29.8235C1.95364 30.1021 2.28379 30.3231 2.64724 30.4741C3.01068 30.6251 3.40031 30.703 3.79387 30.7034C4.58874 30.7026 5.35074 30.3861 5.91228 29.8235C6.47382 29.261 6.78891 28.4984 6.78824 27.7035V24.7036H3.79387C2.14029 24.7036 0.799989 26.0469 0.799989 27.7035ZM8.78416 27.7035V35.7032C8.78416 37.3603 10.1245 38.7036 11.778 38.7036C12.5729 38.7028 13.3349 38.3863 13.8965 37.8237C14.458 37.2612 14.7731 36.4986 14.7724 35.7037V27.7035C14.7728 27.3099 14.6957 26.9201 14.5454 26.5563C14.3951 26.1925 14.1747 25.8619 13.8966 25.5833C13.6185 25.3047 13.2883 25.0837 12.9248 24.9327C12.5613 24.7818 12.1716 24.7039 11.778 24.7036C10.1245 24.7036 8.78416 26.0469 8.78416 27.7035Z" fill="#E01E5A"/>
</g>
<defs>
<clipPath id="clip0_172_39511">
<rect width="121" height="48" fill="white" transform="translate(0.799988)"/>
</clipPath>
</defs>
</svg>
