<svg width="141" height="48" viewBox="0 0 141 48" fill="none" xmlns="http://www.w3.org/2000/svg">
<g clip-path="url(#clip0_172_39510)">
<path d="M21.4726 3.0791C9.8747 3.0791 0.47226 12.4813 0.47226 24.0792C0.47226 35.6777 9.8747 45.0791 21.4726 45.0791C33.0718 45.0791 42.4733 35.6777 42.4733 24.0792C42.4733 12.482 33.0718 3.0801 21.4724 3.0801L21.4726 3.0791ZM31.1033 33.3673C30.7271 33.9842 29.9196 34.1798 29.3027 33.8011C24.3721 30.7894 18.165 30.1073 10.855 31.7774C10.1505 31.9379 9.44839 31.4966 9.28789 30.7919C9.12665 30.0872 9.56625 29.3851 10.2724 29.2246C18.272 27.3969 25.1339 28.1839 30.6694 31.5668C31.2863 31.9454 31.482 32.7504 31.1033 33.3673ZM33.6737 27.6492C33.1997 28.4196 32.1916 28.6628 31.4218 28.1889C25.7769 24.7192 17.1722 23.7144 10.4954 25.7411C9.62944 26.0026 8.71488 25.5146 8.45207 24.6502C8.19127 23.7843 8.67952 22.8715 9.54393 22.6082C17.1707 20.2941 26.6521 21.415 33.1345 25.3985C33.9044 25.8725 34.1477 26.8806 33.6737 27.6495V27.6492ZM33.8944 21.6949C27.126 17.6748 15.9592 17.3051 9.49704 19.2664C8.45934 19.5811 7.36196 18.9953 7.0475 17.9576C6.73303 16.9194 7.31833 15.8228 8.35678 15.5073C15.7749 13.2554 28.1066 13.6905 35.899 18.3165C36.8344 18.8704 37.1404 20.0759 36.5862 21.008C36.0345 21.9414 34.8257 22.2491 33.8954 21.6949H33.8944ZM57.6074 22.4653C53.9812 21.6006 53.3367 20.9937 53.3367 19.7186C53.3367 18.5139 54.4702 17.7031 56.1579 17.7031C57.7929 17.7031 59.4129 18.3187 61.1131 19.5861C61.1633 19.6245 61.2285 19.6398 61.2912 19.6298C61.3564 19.6203 61.4116 19.5854 61.4492 19.533L63.2196 17.0373C63.2924 16.9345 63.2723 16.7928 63.1745 16.7143C61.1508 15.0911 58.8738 14.3019 56.2106 14.3019C52.296 14.3019 49.5601 16.6514 49.5601 20.013C49.5601 23.6178 51.9199 24.8942 55.9974 25.8795C59.4656 26.6787 60.0524 27.3483 60.0524 28.545C60.0524 29.8716 58.8687 30.6966 56.9629 30.6966C54.8464 30.6966 53.1185 29.9819 51.1876 28.3118C51.14 28.2691 51.0748 28.2516 51.0146 28.2541C50.9494 28.2591 50.8917 28.2892 50.8516 28.3368L48.8655 30.6991C48.7827 30.7994 48.7927 30.9449 48.888 31.0301C51.1349 33.0363 53.8984 34.0945 56.8826 34.0945C61.1006 34.0945 63.8265 31.79 63.8265 28.2215C63.834 25.2105 62.031 23.5428 57.6149 22.4685L57.6074 22.4653ZM73.3709 18.8893C71.5428 18.8893 70.0431 19.6095 68.8043 21.0853V19.4242C68.8043 19.293 68.699 19.1862 68.5686 19.1862H65.3211C65.1907 19.1862 65.0854 19.293 65.0854 19.4242V37.8812C65.0854 38.0116 65.1907 38.1194 65.3211 38.1194H68.5686C68.699 38.1194 68.8043 38.0116 68.8043 37.8812V32.0558C70.0431 33.4425 71.5428 34.1221 73.3709 34.1221C76.7688 34.1221 80.2094 31.5066 80.2094 26.5064C80.2144 21.5053 76.7738 18.889 73.3734 18.889L73.3709 18.8893ZM76.4328 26.5064C76.4328 29.0515 74.8655 30.8295 72.6186 30.8295C70.3992 30.8295 68.7241 28.9713 68.7241 26.5064C68.7241 24.0414 70.3992 22.1836 72.6186 22.1836C74.8279 22.1834 76.4328 24.001 76.4328 26.5062V26.5064ZM89.0241 18.8893C84.6481 18.8893 81.22 22.2586 81.22 26.5609C81.22 30.817 84.6255 34.1497 88.9714 34.1497C93.3624 34.1497 96.8005 30.7919 96.8005 26.5064C96.8005 22.2356 93.385 18.8898 89.0241 18.8898V18.8893ZM89.0241 30.8546C86.6969 30.8546 84.9415 28.9838 84.9415 26.5052C84.9415 24.0153 86.6367 22.2085 88.9714 22.2085C91.3136 22.2085 93.079 24.0785 93.079 26.5596C93.079 29.049 91.3738 30.8546 89.0241 30.8546ZM106.144 19.1862H102.571V15.5334C102.571 15.4025 102.465 15.2957 102.335 15.2957H99.0875C98.9571 15.2957 98.8493 15.4025 98.8493 15.5334V19.1862H97.2895C97.1591 19.1862 97.0538 19.293 97.0538 19.4242V22.2145C97.0538 22.3454 97.1591 22.4525 97.2895 22.4525H98.8493V29.6734C98.8493 32.5899 100.301 34.0695 103.168 34.0695C104.331 34.0695 105.297 33.8287 106.207 33.3121C106.282 33.272 106.327 33.1918 106.327 33.1065V30.4483C106.327 30.3681 106.285 30.2903 106.214 30.2477C106.144 30.2026 106.056 30.2001 105.984 30.2377C105.359 30.5511 104.755 30.6966 104.078 30.6966C103.037 30.6966 102.571 30.2226 102.571 29.1644V22.4537H106.144C106.275 22.4537 106.38 22.3469 106.38 22.2157V19.4257C106.385 19.2945 106.28 19.1877 106.147 19.1877L106.144 19.1862ZM118.593 19.2005V18.7518C118.593 17.432 119.099 16.8435 120.233 16.8435C120.91 16.8435 121.454 16.9779 122.063 17.181C122.138 17.2046 122.216 17.1928 122.276 17.1479C122.339 17.103 122.374 17.031 122.374 16.9548V14.2189C122.374 14.1143 122.309 14.0218 122.206 13.9909C121.564 13.7996 120.742 13.6032 119.508 13.6032C116.511 13.6032 114.924 15.2919 114.924 18.485V19.1721H113.364C113.234 19.1721 113.126 19.279 113.126 19.4099V22.2145C113.126 22.3454 113.234 22.4525 113.364 22.4525H114.924V33.588C114.924 33.7209 115.032 33.8262 115.162 33.8262H118.407C118.54 33.8262 118.645 33.7209 118.645 33.588V22.4532H121.677L126.321 33.588C125.795 34.7566 125.276 34.9898 124.568 34.9898C123.997 34.9898 123.392 34.8193 122.778 34.4807C122.72 34.4506 122.65 34.4456 122.59 34.4632C122.527 34.4858 122.475 34.5309 122.449 34.5911L121.349 37.006C121.296 37.1214 121.341 37.2543 121.451 37.3145C122.6 37.9364 123.636 38.2022 124.917 38.2022C127.314 38.2022 128.641 37.0837 129.807 34.0795L135.439 19.5255C135.47 19.4522 135.459 19.3695 135.414 19.3045C135.372 19.2401 135.299 19.2012 135.221 19.2012H131.841C131.738 19.2012 131.648 19.2657 131.615 19.3607L128.152 29.2496L124.36 19.3542C124.325 19.2622 124.237 19.2012 124.14 19.2012H118.593V19.2005ZM111.375 19.1862H108.128C107.997 19.1862 107.89 19.293 107.89 19.4242V33.588C107.89 33.7209 107.997 33.8262 108.128 33.8262H111.375C111.506 33.8262 111.614 33.7209 111.614 33.588V19.4252C111.614 19.294 111.508 19.1872 111.375 19.1872V19.1862ZM109.77 12.7366C108.484 12.7366 107.441 13.7778 107.441 15.064C107.441 16.3509 108.484 17.3934 109.77 17.3934C111.057 17.3934 112.098 16.3509 112.098 15.064C112.098 13.778 111.054 12.7366 109.77 12.7366ZM138.213 23.7404C136.929 23.7404 135.928 22.7085 135.928 21.4554C135.928 20.2023 136.942 19.1586 138.225 19.1586C139.509 19.1586 140.51 20.1903 140.51 21.4424C140.51 22.6955 139.497 23.7404 138.213 23.7404ZM138.225 19.3858C137.054 19.3858 136.169 20.3161 136.169 21.4554C136.169 22.5942 137.049 23.512 138.213 23.512C139.384 23.512 140.269 22.5824 140.269 21.4424C140.269 20.3036 139.389 19.3858 138.225 19.3858ZM138.732 21.6773L139.379 22.5821H138.832L138.251 21.7521H137.752V22.5821H137.295V20.1837H138.363C138.923 20.1837 139.289 20.4689 139.289 20.9488C139.291 21.3421 139.063 21.5823 138.735 21.6773H138.732ZM138.346 20.5953H137.752V21.3538H138.346C138.642 21.3538 138.82 21.2086 138.82 20.9742C138.82 20.7274 138.642 20.5953 138.346 20.5953Z" fill="#1ED760"/>
</g>
<defs>
<clipPath id="clip0_172_39510">
<rect width="140" height="48" fill="white" transform="translate(0.399994)"/>
</clipPath>
</defs>
</svg>
