<svg width="121" height="48" viewBox="0 0 121 48" fill="none" xmlns="http://www.w3.org/2000/svg">
<g clip-path="url(#clip0_172_39513)">
<path d="M39.1308 21.8009C39.1308 19.6682 36.9981 17.3934 33.4436 17.3934C29.4626 17.3934 24.9128 20.3791 24.2019 26.3507C23.491 32.3223 27.1877 35.0237 31.0266 35.0237C34.8654 35.0237 36.7138 33.6019 38.7043 31.6114C36.9981 29.4787 34.7233 30.4739 34.2967 30.6161C33.8702 30.9005 33.1593 31.1848 32.0218 31.1848C30.6 31.1848 29.0361 30.4739 29.0361 27.7725C38.4199 26.7773 39.1308 23.9336 39.1308 21.8009ZM34.5811 22.0853C34.5811 22.7962 34.2967 23.9336 29.6048 24.5024C30.6 20.9479 32.4484 20.6635 33.3015 20.6635C34.1545 20.8057 34.5811 21.3744 34.5811 22.0853ZM18.7991 22.654C18.7991 22.654 16.8086 28.91 16.6664 29.4787C16.6664 28.91 15.1024 17.6777 15.1024 17.6777C11.6901 17.6777 9.84174 20.0948 8.98866 22.654C8.98866 22.654 6.5716 28.91 6.42942 29.4787C6.28724 29.0521 6.00288 22.7962 6.00288 22.7962C5.71852 19.6682 2.87492 17.6777 0.600037 17.6777L3.44364 34.7393C6.99814 34.7393 8.98866 32.3223 9.98392 29.763C9.98392 29.763 12.1166 24.218 12.2588 23.9336C12.2588 24.218 13.8228 34.7393 13.8228 34.7393C17.3773 34.7393 19.3678 32.4645 20.3631 30.0474L25.3394 17.6777C21.6427 17.6777 19.7943 20.0948 18.7991 22.654ZM52.3536 17.2512C50.2209 17.2512 48.5147 18.3886 47.0929 20.237L48.2304 10C45.2446 10 42.9697 12.5592 42.401 16.2559L40.1261 34.5972C41.8323 34.5972 43.5384 34.1706 44.5337 32.891C45.3868 34.0284 46.6664 34.8815 48.5147 34.8815C53.491 34.8815 56.9033 29.1943 56.9033 23.7915C57.0455 18.8152 54.6285 17.2512 52.3536 17.2512ZM51.7849 26.0663C51.2161 29.0521 49.6522 31.0427 47.946 31.0427C46.382 31.0427 45.6711 30.3318 45.6711 30.3318C45.9555 27.7725 46.2398 26.0663 46.8086 24.6445C47.3773 23.2227 48.7991 21.09 50.2209 21.09C51.6427 21.2322 52.3536 23.0806 51.7849 26.0663ZM69.4152 17.6777H66.0029V17.5355C66.2872 15.2607 66.7138 14.1232 68.5621 13.981C69.6996 13.8389 70.2683 13.2701 70.4105 12.5592C70.5526 11.9905 70.837 10.1422 70.837 10.1422C63.8702 10.1422 61.7375 13.128 61.1688 17.6777V17.8199H61.0266C59.8891 17.8199 58.6095 19.0995 58.4673 20.6635L58.3251 21.2322H60.6L58.6095 37.1564L58.0408 40C58.183 40 58.183 40 58.3251 40C61.5953 39.8578 63.5858 37.2986 64.1545 33.6019L65.7185 21.09H66.8559C67.8512 21.09 69.1308 20.0948 69.4152 18.2464V17.6777ZM87.3299 17.3934C83.3488 17.3934 79.6522 20.3791 78.5147 24.9289C77.3773 29.4787 79.0834 35.0237 84.9128 35.0237C90.7422 35.0237 94.1545 29.3365 94.1545 24.6445C94.0124 19.9526 90.8844 17.3934 87.3299 17.3934ZM88.8939 25.9242C88.7517 28.0569 87.7564 31.1848 85.1972 31.1848C82.6379 31.1848 83.0645 27.4882 83.2067 25.782C83.491 23.9336 84.4863 21.2322 86.7612 21.2322C88.8939 21.2322 89.1782 23.6493 88.8939 25.9242ZM113.775 22.654C113.775 22.654 111.785 28.91 111.643 29.4787C111.643 28.91 110.079 17.6777 110.079 17.6777C106.666 17.6777 104.818 20.0948 103.965 22.654C103.965 22.654 101.548 28.91 101.406 29.4787C101.406 29.0521 100.979 22.7962 100.979 22.7962C100.837 19.6682 97.8512 17.8199 95.5763 17.8199L98.4199 34.8815C101.974 34.8815 103.965 32.4645 104.96 29.9052C104.96 29.9052 107.093 24.3602 107.235 24.0758C107.235 24.3602 108.799 34.8815 108.799 34.8815C112.354 34.8815 114.344 32.6066 115.339 30.1896L120.031 17.6777C116.477 17.6777 114.628 20.0948 113.775 22.654ZM72.6853 10.1422L69.8417 33.4597L69.273 36.3033C69.4152 36.3033 69.4152 36.3033 69.5574 36.3033C72.6853 36.3033 74.9602 33.4597 75.2446 30.0474L76.9507 16.6825C77.3773 12.7014 74.818 10.1422 72.6853 10.1422Z" fill="#1B1B1B"/>
</g>
<defs>
<clipPath id="clip0_172_39513">
<rect width="120" height="48" fill="white" transform="translate(0.600037)"/>
</clipPath>
</defs>
</svg>
