<svg width="94" height="48" viewBox="0 0 94 48" fill="none" xmlns="http://www.w3.org/2000/svg">
<path fill-rule="evenodd" clip-rule="evenodd" d="M76.0842 21.2974C76.4414 21.9136 76.5583 22.6148 76.5969 23.4031L76.6476 24.4537V31.8007L76.6994 32.8524C76.803 34.5701 78.0698 35.8401 79.8007 35.9482L80.8469 36V24.4537L80.8987 23.4031C80.9417 22.6236 81.0575 21.9092 81.4202 21.2885C81.7898 20.6519 82.3204 20.1237 82.9587 19.757C83.597 19.3902 84.3205 19.1979 85.0567 19.1992C85.7928 19.2006 86.5157 19.3955 87.1526 19.7646C87.7896 20.1336 88.3183 20.6638 88.6855 21.3018C89.0427 21.9181 89.1541 22.6325 89.1971 23.4031L89.2489 24.4504V31.8007L89.3007 32.8524C89.4088 34.5789 90.6656 35.849 92.402 35.9482L93.4482 36V23.4031C93.4482 21.1756 92.5636 19.0393 90.9888 17.4639C89.4141 15.8886 87.2781 15.0031 85.0507 15.0022C83.8585 15.001 82.6797 15.2541 81.5932 15.7448C80.5066 16.2355 79.5373 16.9525 78.75 17.8477C77.9623 16.9528 76.993 16.2361 75.9065 15.7452C74.8201 15.2544 73.6415 15.0007 72.4493 15.0011C70.7052 15.0011 69.0868 15.5303 67.7462 16.4442C66.9281 15.5314 65.098 15.0011 64.0474 15.0011V36L65.098 35.9482C66.8554 35.8324 68.1254 34.5965 68.1938 32.8524L68.25 31.8007V24.4537L68.3018 23.4031C68.3459 22.6104 68.4562 21.9136 68.8145 21.2929C69.1844 20.6567 69.7147 20.1286 70.3526 19.7614C70.9904 19.3943 71.7134 19.2008 72.4493 19.2004C73.1859 19.2006 73.9094 19.3944 74.5474 19.7625C75.1854 20.1305 75.7154 20.6598 76.0842 21.2974ZM4.19934 35.9493L5.25 36H20.9989L20.9471 34.9526C20.8049 33.2262 19.5822 31.9649 17.8502 31.8525L16.7996 31.8007H7.35132L19.9482 19.1993L19.8964 18.1531C19.8148 16.409 18.5404 15.1488 16.7996 15.0529L15.7489 15.0055L0 15.0011L0.0518165 16.0518C0.189626 17.7617 1.42991 19.0494 3.14757 19.1486L4.19934 19.2004H13.6476L1.05066 31.8018L1.10248 32.8524C1.20611 34.5833 2.45522 35.8368 4.19934 35.9482V35.9493ZM59.9252 18.0748C60.9003 19.0498 61.6739 20.2072 62.2016 21.4812C62.7294 22.7551 63.001 24.1205 63.001 25.4994C63.001 26.8784 62.7294 28.2438 62.2016 29.5177C61.6739 30.7917 60.9003 31.9491 59.9252 32.9241C57.9551 34.8926 55.284 35.9984 52.4989 35.9984C49.7138 35.9984 47.0427 34.8926 45.0726 32.9241C40.9725 28.824 40.9725 22.1749 45.0726 18.0748C46.0469 17.1002 47.2036 16.327 48.4766 15.7994C49.7497 15.2719 51.1142 15.0002 52.4923 15C53.8726 14.999 55.2395 15.2702 56.5149 15.798C57.7904 16.3258 58.9492 17.0999 59.9252 18.0759V18.0748ZM56.954 21.0482C58.135 22.2301 58.7984 23.8325 58.7984 25.5033C58.7984 27.1741 58.135 28.7765 56.954 29.9584C55.7721 31.1394 54.1697 31.8028 52.4989 31.8028C50.8281 31.8028 49.2257 31.1394 48.0438 29.9584C46.8628 28.7765 46.1994 27.1741 46.1994 25.5033C46.1994 23.8325 46.8628 22.2301 48.0438 21.0482C49.2257 19.8672 50.8281 19.2038 52.4989 19.2038C54.1697 19.2038 55.7721 19.8672 56.954 21.0482ZM30.456 15C31.8341 15.0004 33.1987 15.2722 34.4717 15.8C35.7448 16.3277 36.9015 17.1011 37.8756 18.0759C41.9768 22.1749 41.9768 28.8251 37.8756 32.9241C35.9055 34.8926 33.2344 35.9984 30.4493 35.9984C27.6643 35.9984 24.9932 34.8926 23.023 32.9241C18.9229 28.824 18.9229 22.1749 23.023 18.0748C23.9973 17.1002 25.154 16.327 26.4271 15.7994C27.7001 15.2719 29.0647 15.0002 30.4427 15H30.456ZM34.9044 21.046C36.0858 22.2279 36.7494 23.8306 36.7494 25.5017C36.7494 27.1727 36.0858 28.7754 34.9044 29.9573C33.7226 31.1383 32.1201 31.8017 30.4493 31.8017C28.7785 31.8017 27.1761 31.1383 25.9942 29.9573C24.8132 28.7754 24.1498 27.173 24.1498 25.5022C24.1498 23.8314 24.8132 22.229 25.9942 21.0471C27.1761 19.8661 28.7785 19.2027 30.4493 19.2027C32.1201 19.2027 33.7226 19.8661 34.9044 21.0471V21.046Z" fill="#2D8CFF"/>
</svg>
